<svg xmlns="http://www.w3.org/2000/svg" width="17.964" height="18" viewBox="0 0 17.964 18"><g transform="translate(-711.5 -568.5)"><g transform="translate(-1826.445 -2270.814)"><path d="M2555.4,2858.417h-.011a4.133,4.133,0,1,0,4.1,4.652h-4.051C2555.419,2862.392,2555.408,2860.51,2555.4,2858.417Z" transform="translate(-9.516 -13.074)" fill="none" stroke="#ffcb31" stroke-linecap="round" stroke-linejoin="round" stroke-width="1"/><path d="M2553.212,2854.143c.039-.232.064-.462.082-.692h-3.323a4.131,4.131,0,1,1-4.1-4.652h.011c0-1.1-.006-2.26-.008-3.333q-.29,0-.575.021l-.246,1.211a6.19,6.19,0,0,0-.86.177l-.722-1.011a7.5,7.5,0,0,0-1.1.478l.267,1.205a6.285,6.285,0,0,0-.735.519l-1.071-.631a7.426,7.426,0,0,0-.8.866l.733.99a6.242,6.242,0,0,0-.481.8l-1.235-.141a7.492,7.492,0,0,0-.374,1.1l1.071.606a6.294,6.294,0,0,0-.119.966l-1.185.374a7.406,7.406,0,0,0,.1,1.139l1.225.118a6.225,6.225,0,0,0,.3.966l-.929.822a7.483,7.483,0,0,0,.553.982l1.168-.391a6.254,6.254,0,0,0,.687.78l-.514,1.128a7.37,7.37,0,0,0,.9.662l.91-.833a6.22,6.22,0,0,0,.965.431l-.011,1.235c.177.051.356.1.539.138s.366.068.549.093l.492-1.132a6.229,6.229,0,0,0,1.056,0l.492,1.132a7.386,7.386,0,0,0,1.089-.24l-.011-1.239a6.267,6.267,0,0,0,.945-.434l.908.832a7.465,7.465,0,0,0,.9-.672l-.514-1.129a6.228,6.228,0,0,0,.665-.762l1.167.391a7.39,7.39,0,0,0,.557-1l-.931-.823a6.327,6.327,0,0,0,.284-.931Z" transform="translate(0 -3.455)" fill="none" stroke="#ffcb31" stroke-linecap="round" stroke-linejoin="round" stroke-width="1"/><g transform="translate(2547.969 2839.814)"><g transform="translate(0 0)"><path d="M2575.705,2848.279a4.19,4.19,0,0,1-.036.52h3.323c.012-.156.022-.311.024-.465l-1.186-.374a6.212,6.212,0,0,0-.114-.928l1.072-.606a7.425,7.425,0,0,0-.382-1.118l-1.235.141a6.309,6.309,0,0,0-.46-.773l.734-.992a7.508,7.508,0,0,0-.807-.882l-1.071.63a6.289,6.289,0,0,0-.713-.512l.267-1.207a7.373,7.373,0,0,0-1.1-.484l-.72,1.009c-.139-.04-.278-.076-.421-.107s-.286-.054-.428-.074l-.247-1.215q-.316-.027-.628-.027c0,1.073,0,2.232.008,3.333A4.132,4.132,0,0,1,2575.705,2848.279Z" transform="translate(-2571.576 -2840.814)" fill="none" stroke="#ffcb31" stroke-linecap="round" stroke-linejoin="round" stroke-width="1"/></g><path d="M2575.669,2858.419h-4.093v-4.652" transform="translate(-2571.576 -2850.435)" fill="none" stroke="#ffcb31" stroke-linecap="round" stroke-linejoin="round" stroke-width="1"/></g></g></g></svg>