<svg xmlns="http://www.w3.org/2000/svg" width="21.292" height="17.148" viewBox="0 0 21.292 17.148"><g transform="translate(-1330.325 -569)"><g transform="translate(-1305.107 -2271.314)"><path d="M2644.733,2875.744v5.826h-2.751v-4.377" transform="translate(-4.139 -24.609)" fill="none" stroke="#ffcb31" stroke-linecap="round" stroke-linejoin="round" stroke-width="1"/><path d="M2641.982,2863.589v-3.6h2.751v1.916" transform="translate(-4.139 -13.51)" fill="none" stroke="#ffcb31" stroke-linecap="round" stroke-linejoin="round" stroke-width="1"/><path d="M2662.58,2878.985v4.782h-2.751v-4.905" transform="translate(-16.712 -26.806)" fill="none" stroke="#ffcb31" stroke-linecap="round" stroke-linejoin="round" stroke-width="1"/><path d="M2669.139,2879.278" transform="translate(-23.271 -27.099)" fill="none" stroke="#ffcb31" stroke-linecap="round" stroke-linejoin="round" stroke-width="1"/><path d="M2659.828,2856.333v-5.875h2.751v5.765" transform="translate(-16.712 -6.794)" fill="none" stroke="#ffcb31" stroke-linecap="round" stroke-linejoin="round" stroke-width="1"/><path d="M2680.648,2872.71v6.723H2677.9v-6.526" transform="translate(-29.441 -22.471)" fill="none" stroke="#ffcb31" stroke-linecap="round" stroke-linejoin="round" stroke-width="1"/><path d="M2677.9,2847.254v-6.44h2.751v6.281" transform="translate(-29.441)" fill="none" stroke="#ffcb31" stroke-linecap="round" stroke-linejoin="round" stroke-width="1"/><path d="M2656.021,2864.535l-3.079,2.489-3.112-2.489-5.175,3.9-3.57-2.129-4.979,2.588" transform="translate(0 -16.712)" fill="none" stroke="#ffcb31" stroke-linecap="round" stroke-linejoin="round" stroke-width="1"/><path d="M2698.569,2866.468l.442-1.933-1.883.344" transform="translate(-42.99 -16.712)" fill="none" stroke="#ffcb31" stroke-linecap="round" stroke-linejoin="round" stroke-width="1"/></g></g></svg>