<svg xmlns="http://www.w3.org/2000/svg" width="37" height="38" viewBox="0 0 37 38"><g transform="translate(-1789 -33)"><ellipse cx="18.5" cy="19" rx="18.5" ry="19" transform="translate(1789 33)" fill="#f1f3fa"/><g transform="translate(1800.228 44.438)"><path d="M2444.559,2167.143a2.829,2.829,0,0,1-5.283,0" transform="translate(-2434.886 -2152.338)" fill="none" stroke="#3c2e7e" stroke-linecap="round" stroke-linejoin="round" stroke-width="1"/><path d="M2419.361,2072.287a4.437,4.437,0,0,1,2.838,4.139,8.976,8.976,0,0,0,.344,2.792,7.166,7.166,0,0,0,1.518,2.573,1.984,1.984,0,0,1,.645,2.1,1.5,1.5,0,0,1-1.45.9h-10.983a1.5,1.5,0,0,1-1.449-.9,1.985,1.985,0,0,1,.645-2.1,7.159,7.159,0,0,0,1.518-2.573,8.985,8.985,0,0,0,.344-2.792,4.437,4.437,0,0,1,2.838-4.139h0a1.609,1.609,0,0,1,3.194,0Z" transform="translate(-2410.732 -2070.873)" fill="none" stroke="#3c2e7e" stroke-linecap="round" stroke-linejoin="round" stroke-width="1"/></g><circle cx="5" cy="5" r="5" transform="translate(1816 35)" fill="#e66969"/></g></svg>