<svg xmlns="http://www.w3.org/2000/svg" width="26.891" height="24.807" viewBox="0 0 26.891 24.807"><g transform="translate(-91.5 -149.5)"><g transform="translate(-33 -14)"><g transform="translate(-1865.085 -1846.533)"><path d="M2095.413,2023.76a11.634,11.634,0,0,0-8.1-13.227l-3.329,10.831Z" transform="translate(-79.625)" fill="none" stroke="#ffcb31" stroke-linecap="round" stroke-linejoin="round" stroke-width="1"/><path d="M2090.856,2102.917a11.618,11.618,0,0,0,4.53-7.126l-11.4-2.242Z" transform="translate(-79.625 -70.394)" fill="none" stroke="#ffcb31" stroke-linecap="round" stroke-linejoin="round" stroke-width="1"/><path d="M2005.154,2014.843l-3.439,11.093,6.853,9.368a11.612,11.612,0,1,1-3.414-20.461" transform="translate(0 -3.212)" fill="none" stroke="#ffcb31" stroke-linecap="round" stroke-linejoin="round" stroke-width="1"/><g transform="translate(1994.079 2019.093)"><path d="M2018.371,2074.049a2.466,2.466,0,0,1-.866-.147,2.031,2.031,0,0,1-.681-.412,1.878,1.878,0,0,1-.446-.626.245.245,0,0,1,0-.194.215.215,0,0,1,.139-.126.206.206,0,0,1,.172.009.274.274,0,0,1,.122.134,1.407,1.407,0,0,0,.588.639,1.9,1.9,0,0,0,.975.235,2.04,2.04,0,0,0,.824-.151,1.2,1.2,0,0,0,.534-.437,1.237,1.237,0,0,0,.189-.7,1.369,1.369,0,0,0-.374-.971,1.883,1.883,0,0,0-1.147-.509,2.836,2.836,0,0,1-.962-.328,1.755,1.755,0,0,1-.635-.605,1.6,1.6,0,0,1-.227-.857,1.423,1.423,0,0,1,.244-.836,1.537,1.537,0,0,1,.677-.534,2.469,2.469,0,0,1,.979-.185,2.021,2.021,0,0,1,.752.139,2.168,2.168,0,0,1,.609.361,1.545,1.545,0,0,1,.387.475.261.261,0,0,1,.025.194.2.2,0,0,1-.118.143.231.231,0,0,1-.168,0,.261.261,0,0,1-.135-.1,1.629,1.629,0,0,0-.475-.491,1.486,1.486,0,0,0-.878-.231,1.756,1.756,0,0,0-1.03.265.945.945,0,0,0-.374.828,1.272,1.272,0,0,0,.13.563,1.2,1.2,0,0,0,.437.471,2.318,2.318,0,0,0,.836.3,2.626,2.626,0,0,1,1.471.656,1.712,1.712,0,0,1,.479,1.252,1.79,1.79,0,0,1-.147.74,1.58,1.58,0,0,1-.416.559,1.845,1.845,0,0,1-.647.353A2.731,2.731,0,0,1,2018.371,2074.049Zm.059.731a.164.164,0,0,1-.126-.055.234.234,0,0,1-.051-.164v-7.506a.233.233,0,0,1,.051-.168.183.183,0,0,1,.252,0,.232.232,0,0,1,.05.168v7.506a.234.234,0,0,1-.05.164A.164.164,0,0,1,2018.429,2074.781Z" transform="translate(-2016.357 -2066.838)" fill="#ffcb31"/></g></g></g></g></svg>