<svg xmlns="http://www.w3.org/2000/svg" width="37" height="38" viewBox="0 0 37 38"><g transform="translate(-1802 -1197)"><ellipse cx="18.5" cy="19" rx="18.5" ry="19" transform="translate(1802 1197)" fill="#f1f3fa"/><g transform="translate(2099.966 182.819)"><path d="M-271.634,1022.806h-16.332a1,1,0,0,0-1,1v20.528a1,1,0,0,0,1,1h10.332a1,1,0,0,0,.707-.293l6-6a1,1,0,0,0,.293-.707v-14.528A1,1,0,0,0-271.634,1022.806Zm-15.332,2h14.332v13.028h-5a.5.5,0,0,0-.5.5v5h-8.832Zm9.832,17.614v-3.586h3.586Z" fill="#3c2e7e"/><path d="M-276.151,1033.059a1,1,0,0,0,0-1.414,1,1,0,0,0-1.414,0l-1.235,1.233v-5.2a1,1,0,0,0-1-1,1,1,0,0,0-1,1v5.2l-1.234-1.233a1,1,0,0,0-1.414,0,1,1,0,0,0,0,1.414l2.941,2.939a1,1,0,0,0,.707.293.993.993,0,0,0,.707-.293Z" fill="#3c2e7e"/></g></g></svg>