<svg xmlns="http://www.w3.org/2000/svg" xmlns:xlink="http://www.w3.org/1999/xlink" width="174.839" height="44.704" viewBox="0 0 174.839 44.704">
  <defs>
    <clipPath id="clip-path">
      <path id="Clip_18" data-name="Clip 18" d="M0,0H21.629V26.2H0Z" fill="none"/>
    </clipPath>
    <clipPath id="clip-path-2">
      <path id="Clip_49" data-name="Clip 49" d="M0,44.7H174.839V0H0Z" fill="none"/>
    </clipPath>
  </defs>
  <g id="Group_1157" data-name="Group 1157" transform="translate(-682.322 -241.45)">
    <g id="Group_68" data-name="Group 68" transform="translate(682.322 241.45)">
      <path id="Fill_1" data-name="Fill 1" d="M14.653,12.082a1.653,1.653,0,0,1,0,2.364,1.761,1.761,0,0,1-1.251.462H3.565V24.986a1.755,1.755,0,0,1-1.782,1.782A1.755,1.755,0,0,1,0,24.986V1.781A1.709,1.709,0,0,1,.515.5,1.755,1.755,0,0,1,1.783,0H17.275a1.748,1.748,0,0,1,1.268.464,1.609,1.609,0,0,1,.479,1.216,1.516,1.516,0,0,1-.479,1.166,1.789,1.789,0,0,1-1.268.446H3.565v8.328H13.4a1.761,1.761,0,0,1,1.251.462" transform="translate(44.379 4.483)" fill="#3c2e7e"/>
      <path id="Fill_3" data-name="Fill 3" d="M2.262,26.322A1.7,1.7,0,0,1,.513,24.573V9.323a1.7,1.7,0,0,1,.5-1.269,1.736,1.736,0,0,1,1.252-.479,1.727,1.727,0,0,1,1.267.479A1.727,1.727,0,0,1,4.01,9.323v15.25a1.736,1.736,0,0,1-.481,1.252A1.668,1.668,0,0,1,2.262,26.322Zm0-21.8a2.187,2.187,0,0,1-1.6-.668A2.19,2.19,0,0,1,0,2.26,2.192,2.192,0,0,1,.667.666,2.193,2.193,0,0,1,2.262,0,2.19,2.19,0,0,1,3.855.666,2.185,2.185,0,0,1,4.523,2.26a2.183,2.183,0,0,1-.668,1.6A2.184,2.184,0,0,1,2.262,4.523Z" transform="translate(66.077 4.93)" fill="#3c2e7e"/>
      <path id="Fill_5" data-name="Fill 5" d="M13.573,1.029a7.244,7.244,0,0,1,2.948,3,9.873,9.873,0,0,1,1.062,4.747v8.431a1.749,1.749,0,1,1-3.5,0V8.775a5.534,5.534,0,0,0-1.49-4.2A5.493,5.493,0,0,0,8.638,3.153a5.857,5.857,0,0,0-2.624.584,4.637,4.637,0,0,0-1.85,1.578A3.89,3.89,0,0,0,3.5,7.54v9.666a1.733,1.733,0,0,1-.481,1.252,1.685,1.685,0,0,1-1.268.5A1.7,1.7,0,0,1,0,17.206V1.92A1.688,1.688,0,0,1,.5.651,1.731,1.731,0,0,1,1.748.172,1.715,1.715,0,0,1,3.016.651,1.719,1.719,0,0,1,3.5,1.92V2.3A7.664,7.664,0,0,1,6.1.6,8.62,8.62,0,0,1,9.322,0a8.735,8.735,0,0,1,4.251,1.029" transform="translate(74.212 12.332)" fill="#3c2e7e"/>
      <path id="Fill_7" data-name="Fill 7" d="M23.53.378a1.431,1.431,0,0,1,.36,1.029,2.709,2.709,0,0,1-.172.992l-5.073,15.22a1.688,1.688,0,0,1-.616.805,1.646,1.646,0,0,1-.994.326,1.775,1.775,0,0,1-1.046-.326,1.481,1.481,0,0,1-.6-.805L12.031,5.176,8.5,17.618a1.655,1.655,0,0,1-.634.805,1.732,1.732,0,0,1-2.022,0,1.662,1.662,0,0,1-.634-.805L.138,2.4A3.2,3.2,0,0,1,0,1.441,1.273,1.273,0,0,1,1.44,0a1.575,1.575,0,0,1,1.08.378,2.743,2.743,0,0,1,.7,1.2l3.7,11.55L10.419,1.3a1.913,1.913,0,0,1,.6-.943A1.678,1.678,0,0,1,12.132,0a1.626,1.626,0,0,1,1.081.361,1.9,1.9,0,0,1,.6.943L16.9,13.367l3.773-11.79C20.986.527,21.582,0,22.45,0a1.425,1.425,0,0,1,1.08.378" transform="translate(92.651 12.503)" fill="#3c2e7e"/>
      <path id="Fill_9" data-name="Fill 9" d="M8.774,19.023A8.4,8.4,0,0,1,4.3,17.789a8.709,8.709,0,0,1-3.153-3.411A10.284,10.284,0,0,1,0,9.528,9.7,9.7,0,0,1,1.235,4.679,9.032,9.032,0,0,1,4.644,1.251,9.535,9.535,0,0,1,9.46,0a9.361,9.361,0,0,1,4.782,1.251,9.249,9.249,0,0,1,3.391,3.428,9.584,9.584,0,0,1,1.253,4.849v7.644a1.749,1.749,0,1,1-3.5,0V15.9a8.415,8.415,0,0,1-6.615,3.121ZM9.46,3.084a5.912,5.912,0,0,0-3.1.84,6.078,6.078,0,0,0-2.2,2.315,6.772,6.772,0,0,0-.8,3.288,6.7,6.7,0,0,0,.8,3.274,6.119,6.119,0,0,0,2.2,2.3,5.911,5.911,0,0,0,3.1.838,5.913,5.913,0,0,0,3.1-.838,5.988,5.988,0,0,0,2.176-2.3,6.807,6.807,0,0,0,.788-3.274,6.885,6.885,0,0,0-.788-3.288A5.864,5.864,0,0,0,9.46,3.084Z" transform="translate(117.123 12.367)" fill="#3c2e7e"/>
      <path id="Fill_11" data-name="Fill 11" d="M17.824.737a1.431,1.431,0,0,1,.24.806,1.467,1.467,0,0,1-.171.649L10.626,17.514a1.735,1.735,0,0,1-2.536.875,2.225,2.225,0,0,1-.684-.875L.138,2.193A1.337,1.337,0,0,1,0,1.578,1.517,1.517,0,0,1,.96.172,1.448,1.448,0,0,1,1.68,0a1.534,1.534,0,0,1,.788.223,1.49,1.49,0,0,1,.582.636L9.016,13.71,14.911.858a1.456,1.456,0,0,1,.6-.636A1.684,1.684,0,0,1,16.349,0a1.74,1.74,0,0,1,.789.172,1.61,1.61,0,0,1,.685.565" transform="translate(136.111 12.572)" fill="#3c2e7e"/>
      <path id="Fill_13" data-name="Fill 13" d="M9.77,19.024a10.38,10.38,0,0,1-5.04-1.218A8.878,8.878,0,0,1,1.251,14.43,9.631,9.631,0,0,1,0,9.53,10.191,10.191,0,0,1,1.181,4.61,8.6,8.6,0,0,1,4.472,1.217,9.432,9.432,0,0,1,9.253,0a8.658,8.658,0,0,1,4.559,1.166,7.725,7.725,0,0,1,2.949,3.256,10.805,10.805,0,0,1,1.029,4.8,1.441,1.441,0,0,1-.447,1.081,1.569,1.569,0,0,1-1.13.428H3.188A6.054,6.054,0,0,0,5.364,14.6,6.745,6.745,0,0,0,9.77,16.074a6.656,6.656,0,0,0,2.141-.377,6.358,6.358,0,0,0,1.833-.924,1.789,1.789,0,0,1,1.131-.377,1.483,1.483,0,0,1,1.03.343A1.5,1.5,0,0,1,16.52,15.9a1.245,1.245,0,0,1-.548,1.029,9.455,9.455,0,0,1-2.9,1.509A10.384,10.384,0,0,1,9.77,19.024ZM9.253,2.946a5.944,5.944,0,0,0-4.06,1.372A6.182,6.182,0,0,0,3.222,7.986H14.636a6.112,6.112,0,0,0-1.714-3.668A5.056,5.056,0,0,0,9.253,2.946Z" transform="translate(154.585 12.366)" fill="#3c2e7e"/>
      <path id="Fill_15" data-name="Fill 15" d="M34.621,12.953a17.625,17.625,0,0,0-7.454-9.741C26.9.689,25.578,0,25.578,0l-.234,2.2a17.7,17.7,0,1,0,9.276,10.751" transform="translate(0 0)" fill="#3c2e7e"/>
      <g id="Group_19" data-name="Group 19" transform="translate(4.321 0)">
        <path id="Clip_18-2" data-name="Clip 18" d="M0,0H21.629V26.2H0Z" transform="translate(0 0)" fill="none"/>
        <g id="Group_19-2" data-name="Group 19" transform="translate(0 0)" clip-path="url(#clip-path)">
          <path id="Fill_17" data-name="Fill 17" d="M1.915,26.205A11.376,11.376,0,0,1,0,20.009c-.148-3.935,3.076-7.118,5.507-8.873S21.259,0,21.259,0a7.644,7.644,0,0,1-2.805,8.55S8.43,15.508,6.965,16.574,1.6,21.2,1.915,26.205" transform="translate(0 -0.001)" fill="#ffcb31"/>
        </g>
      </g>
      <path id="Fill_20" data-name="Fill 20" d="M6.907,13.526c1.465-1.069,7.585-5.2,7.585-5.2A7.3,7.3,0,0,0,17.509,0S7.847,6.725,5.379,8.431C1.935,10.81-.139,13.721.007,17.657A9.678,9.678,0,0,0,1.4,22.943a17.74,17.74,0,0,0,2.77,1.327C1.925,18.227,5.447,14.59,6.907,13.526" transform="translate(7.294 10.463)" fill="#ffcb31"/>
      <path id="Fill_22" data-name="Fill 22" d="M.7,0C-.747,2.289.477,5.666.633,5.716a17.621,17.621,0,0,0,10.531.03,17.957,17.957,0,0,0,2.115-.8C2.386,8.355.7,0,.7,0" transform="translate(11.757 29.337)" fill="#ffcb31"/>
      <path id="Fill_24" data-name="Fill 24" d="M3.286,6.888a3.3,3.3,0,0,1-1.653-.429,3.161,3.161,0,0,1-1.2-1.214A3.593,3.593,0,0,1,0,3.462,3.654,3.654,0,0,1,.438,1.669a3.2,3.2,0,0,1,1.2-1.23A3.241,3.241,0,0,1,3.286,0,3.183,3.183,0,0,1,6.114,1.669a3.643,3.643,0,0,1,.439,1.792,3.582,3.582,0,0,1-.439,1.783A3.178,3.178,0,0,1,4.927,6.458,3.241,3.241,0,0,1,3.286,6.888Zm0-6.29A2.5,2.5,0,0,0,1.949.966,2.593,2.593,0,0,0,1.01,1.985,3.129,3.129,0,0,0,.666,3.462,3.071,3.071,0,0,0,1.01,4.928,2.521,2.521,0,0,0,3.286,6.29,2.521,2.521,0,0,0,5.559,4.928,3.06,3.06,0,0,0,5.9,3.462a3.118,3.118,0,0,0-.344-1.476A2.583,2.583,0,0,0,4.62.966,2.5,2.5,0,0,0,3.286.6ZM2.7,5.2H2.02V1.616H3.339a1.66,1.66,0,0,1,.974.265.979.979,0,0,1,.379.861,1.057,1.057,0,0,1-.185.606.967.967,0,0,1-.484.378L4.848,5.2l-.753,0L3.442,3.936H2.7V5.2Zm0-3.023V3.391h.458a1.015,1.015,0,0,0,.6-.15.507.507,0,0,0,.21-.448c0-.407-.254-.613-.755-.613Z" transform="translate(168.285 4.585)" fill="#3c2e7e"/>
      <path id="Fill_26" data-name="Fill 26" d="M.581,5.157H0V0H1.428A2.463,2.463,0,0,1,2.845.35a1.309,1.309,0,0,1,.5,1.151,1.41,1.41,0,0,1-.5,1.172,2.186,2.186,0,0,1-1.383.4H.581V5.156Zm0-4.685V2.591h.792a1.72,1.72,0,0,0,1.053-.263A.99.99,0,0,0,2.761,1.5.889.889,0,0,0,2.417.7,1.959,1.959,0,0,0,1.342.472Z" transform="translate(44.426 37.883)" fill="#3c2e7e"/>
      <path id="Fill_28" data-name="Fill 28" d="M1.751,4a1.684,1.684,0,0,1-.872-.239,1.723,1.723,0,0,1-.64-.692A2.242,2.242,0,0,1,0,2,2.261,2.261,0,0,1,.24.935a1.7,1.7,0,0,1,.64-.7A1.665,1.665,0,0,1,1.751,0a1.676,1.676,0,0,1,.872.24,1.743,1.743,0,0,1,.639.7A2.274,2.274,0,0,1,3.5,2a2.254,2.254,0,0,1-.239,1.063,1.762,1.762,0,0,1-.639.692A1.7,1.7,0,0,1,1.751,4Zm0-3.516a.989.989,0,0,0-.6.193,1.24,1.24,0,0,0-.409.537A2.033,2.033,0,0,0,.6,2a1.77,1.77,0,0,0,.32,1.1,1.012,1.012,0,0,0,.834.415,1,1,0,0,0,.6-.189,1.225,1.225,0,0,0,.413-.534A1.994,1.994,0,0,0,2.911,2a1.994,1.994,0,0,0-.148-.792A1.274,1.274,0,0,0,2.35.672.992.992,0,0,0,1.751.479Z" transform="translate(48.295 39.139)" fill="#3c2e7e"/>
      <path id="Fill_30" data-name="Fill 30" d="M0,0H.588l.6,2.269.07.337c.074.315.127.552.157.714h.031c.1-.408.189-.758.266-1.051L2.323,0H2.9l.619,2.269L3.783,3.32h.03l.252-1.051L4.647,0H5.2L4.16,3.806H3.454L2.873,1.679l-.149-.62c-.011-.041-.047-.2-.11-.471H2.582q-.173.777-.275,1.107L1.742,3.806H1.076Z" transform="translate(52.329 39.233)" fill="#3c2e7e"/>
      <path id="Fill_32" data-name="Fill 32" d="M1.807,3.995a1.8,1.8,0,0,1-.914-.239,1.693,1.693,0,0,1-.652-.7A2.238,2.238,0,0,1,0,2,2.223,2.223,0,0,1,.241.949a1.8,1.8,0,0,1,.631-.7A1.545,1.545,0,0,1,1.7,0a1.361,1.361,0,0,1,1.1.475A1.99,1.99,0,0,1,3.2,1.78a2.053,2.053,0,0,1-.024.347H.549A1.535,1.535,0,0,0,.961,3.162a1.255,1.255,0,0,0,.915.369,1.739,1.739,0,0,0,.965-.306l.211.377a2.884,2.884,0,0,1-.581.287A2.005,2.005,0,0,1,1.807,3.995ZM1.711.462A1.054,1.054,0,0,0,.958.785a1.469,1.469,0,0,0-.392.926H2.692A1.455,1.455,0,0,0,2.433.785.875.875,0,0,0,1.711.462Z" transform="translate(58.058 39.14)" fill="#3c2e7e"/>
      <path id="Fill_34" data-name="Fill 34" d="M0,.094H.471l.047.7H.541A1.735,1.735,0,0,1,1.021.212.985.985,0,0,1,1.625,0a.907.907,0,0,1,.392.079l-.11.5A1.23,1.23,0,0,0,1.546.518a.823.823,0,0,0-.529.22,1.69,1.69,0,0,0-.452.683V3.9H0Z" transform="translate(62.217 39.139)" fill="#3c2e7e"/>
      <path id="Fill_36" data-name="Fill 36" d="M1.807,3.995a1.8,1.8,0,0,1-.914-.239,1.693,1.693,0,0,1-.652-.7A2.249,2.249,0,0,1,0,2,2.235,2.235,0,0,1,.241.949a1.8,1.8,0,0,1,.631-.7A1.545,1.545,0,0,1,1.7,0a1.366,1.366,0,0,1,1.1.475A2,2,0,0,1,3.2,1.78a2.2,2.2,0,0,1-.024.347H.549A1.531,1.531,0,0,0,.962,3.162a1.254,1.254,0,0,0,.914.369,1.739,1.739,0,0,0,.965-.306l.212.377a2.9,2.9,0,0,1-.582.287A2.005,2.005,0,0,1,1.807,3.995ZM1.711.462A1.054,1.054,0,0,0,.958.785a1.476,1.476,0,0,0-.392.926H2.692A1.455,1.455,0,0,0,2.433.785.875.875,0,0,0,1.711.462Z" transform="translate(64.508 39.14)" fill="#3c2e7e"/>
      <path id="Fill_38" data-name="Fill 38" d="M1.561,5.7A1.393,1.393,0,0,1,.418,5.172,2.314,2.314,0,0,1,0,3.7,2.341,2.341,0,0,1,.228,2.652a1.753,1.753,0,0,1,.608-.7,1.488,1.488,0,0,1,.82-.247,1.323,1.323,0,0,1,.549.11,2.615,2.615,0,0,1,.533.338l-.023-.659V0h.566V5.6H2.81l-.047-.463H2.738a2,2,0,0,1-.545.4A1.4,1.4,0,0,1,1.561,5.7ZM1.742,2.19a.96.96,0,0,0-.585.2,1.329,1.329,0,0,0-.415.542A1.9,1.9,0,0,0,.588,3.7,1.884,1.884,0,0,0,.875,4.812a.947.947,0,0,0,.813.4,1.068,1.068,0,0,0,.522-.133,2.053,2.053,0,0,0,.506-.408V2.605a1.85,1.85,0,0,0-.485-.317A1.271,1.271,0,0,0,1.742,2.19Z" transform="translate(68.386 37.436)" fill="#3c2e7e"/>
      <path id="Fill_40" data-name="Fill 40" d="M1.609,5.156H0V0H1.492A2.341,2.341,0,0,1,2.783.309a1.071,1.071,0,0,1,.467.955,1.23,1.23,0,0,1-.2.7,1.072,1.072,0,0,1-.566.418v.032a1.374,1.374,0,0,1,.78.413,1.19,1.19,0,0,1,.288.828,1.31,1.31,0,0,1-.523,1.121A2.35,2.35,0,0,1,1.609,5.156ZM.582,2.661V4.694h.934A1.906,1.906,0,0,0,2.6,4.431a.911.911,0,0,0,.375-.8c0-.646-.491-.974-1.459-.974Zm0-2.2v1.75h.792c.865,0,1.3-.3,1.3-.878A.744.744,0,0,0,2.362.667a1.8,1.8,0,0,0-.957-.2Z" transform="translate(74.625 37.883)" fill="#3c2e7e"/>
      <path id="Fill_42" data-name="Fill 42" d="M.15,5.392.259,4.93a.821.821,0,0,0,.3.062.7.7,0,0,0,.533-.235,1.711,1.711,0,0,0,.354-.636l.093-.291L0,0H.588l.817,2.183.377,1.067h.031c.074-.219.149-.46.228-.722l.1-.345L2.857,0h.557L1.971,4.16a2.768,2.768,0,0,1-.546.961,1.1,1.1,0,0,1-.844.349A1.152,1.152,0,0,1,.15,5.392" transform="translate(78.486 39.233)" fill="#3c2e7e"/>
      <path id="Fill_44" data-name="Fill 44" d="M.433,3.791a.41.41,0,0,1-.306-.13A.454.454,0,0,1,0,3.335.458.458,0,0,1,.126,3a.407.407,0,0,1,.306-.13A.405.405,0,0,1,.739,3a.458.458,0,0,1,.124.332.453.453,0,0,1-.124.326A.408.408,0,0,1,.433,3.791Zm0-2.873A.407.407,0,0,1,.126.788.454.454,0,0,1,0,.462.462.462,0,0,1,.126.13.41.41,0,0,1,.433,0,.408.408,0,0,1,.739.13.462.462,0,0,1,.863.462.453.453,0,0,1,.739.788.405.405,0,0,1,.433.917Z" transform="translate(84.081 39.343)" fill="#3c2e7e"/>
      <path id="Fill_46" data-name="Fill 46" d="M.815,5.142H0L1.7,0h.926l1.7,5.139-.847,0-.44-1.468H1.255L.815,5.141ZM2.135.636h0c-.163.629-.324,1.2-.478,1.711l-.2.691h1.4l-.2-.691c-.082-.276-.165-.564-.246-.855l-.079-.277,0-.008C2.273,1.025,2.233.885,2.2.786A.644.644,0,0,0,2.166.636Z" transform="translate(87.034 37.899)" fill="#3c2e7e"/>
      <path id="Clip_49-2" data-name="Clip 49" d="M0,44.7H174.839V0H0Z" transform="translate(0 0)" fill="none"/>
      <g id="Mask_Group_1" data-name="Mask Group 1" transform="translate(0 0)" clip-path="url(#clip-path-2)">
        <path id="Fill_48" data-name="Fill 48" d="M.17,5.141h.8V0H.17Z" transform="translate(91.871 37.9)" fill="#3c2e7e"/>
        <path id="Fill_50" data-name="Fill 50" d="M.8,5.143H0V0H1.679A2.342,2.342,0,0,1,3.038.35a1.3,1.3,0,0,1,.494,1.142,1.487,1.487,0,0,1-.285.938,1.571,1.571,0,0,1-.79.522L3.711,5.14l-.9,0L1.655,3.062H.8v2.08Zm0-4.5V2.418h.785a1.373,1.373,0,0,0,.86-.231.83.83,0,0,0,.294-.7A.734.734,0,0,0,2.452.84a1.548,1.548,0,0,0-.867-.2Z" transform="translate(94.191 37.899)" fill="#3c2e7e"/>
        <path id="Fill_51" data-name="Fill 51" d="M.815,5.142H0L1.7,0h.926l1.7,5.139-.846,0L3.044,3.673H1.255L.815,5.141ZM2.135.636h0c-.163.629-.324,1.2-.478,1.711l-.2.691h1.4l-.2-.691c-.082-.276-.165-.564-.246-.855l-.079-.277,0-.008C2.273,1.025,2.233.885,2.2.786A.644.644,0,0,0,2.166.636Z" transform="translate(98.045 37.899)" fill="#3c2e7e"/>
        <path id="Fill_52" data-name="Fill 52" d="M0,0H.824L2.535,3.038,3.076,4.12h.031c-.01-.167-.021-.285-.031-.352s-.018-.234-.039-.527S3,2.673,3,2.418V0h.762V5.141H2.943L1.232,2.1.69,1.021H.66l.03.392c.006.063.019.232.04.51s.031.536.031.777V5.141H0Z" transform="translate(103.051 37.899)" fill="#3c2e7e"/>
        <path id="Fill_53" data-name="Fill 53" d="M0,0H3.045V.676H.8V2.252H2.707v.676H.8V5.141H0Z" transform="translate(109.738 37.899)" fill="#3c2e7e"/>
        <path id="Fill_54" data-name="Fill 54" d="M.169,5.141h.8V0h-.8Z" transform="translate(113.516 37.9)" fill="#3c2e7e"/>
        <path id="Fill_55" data-name="Fill 55" d="M0,0H.824L2.535,3.038,3.076,4.12h.031c-.01-.167-.021-.285-.031-.352s-.018-.234-.039-.527-.031-.568-.031-.823V0h.762V5.141H2.944L1.232,2.1.69,1.021H.66l.03.392c.006.063.019.232.041.51s.03.536.03.777V5.141H0Z" transform="translate(115.836 37.899)" fill="#3c2e7e"/>
        <path id="Fill_56" data-name="Fill 56" d="M.828,5.128A2.518,2.518,0,0,1,0,4.568l.471-.55a2.212,2.212,0,0,0,.644.447,1.74,1.74,0,0,0,.73.165,1.146,1.146,0,0,0,.714-.2.646.646,0,0,0,.259-.538.634.634,0,0,0-.1-.364.8.8,0,0,0-.258-.241,4.292,4.292,0,0,0-.467-.219L1.28,2.754A1.426,1.426,0,0,1,.236,1.413,1.266,1.266,0,0,1,.452.69a1.481,1.481,0,0,1,.6-.506A1.961,1.961,0,0,1,1.914,0,2.167,2.167,0,0,1,2.77.172a2.127,2.127,0,0,1,.7.471l-.416.51A1.692,1.692,0,0,0,1.914.7,1.015,1.015,0,0,0,1.28.879a.579.579,0,0,0-.235.487.537.537,0,0,0,.113.345.925.925,0,0,0,.275.228,4.854,4.854,0,0,0,.444.2l.714.306a1.911,1.911,0,0,1,.772.53,1.288,1.288,0,0,1,.27.851,1.381,1.381,0,0,1-.218.758,1.522,1.522,0,0,1-.63.541,2.149,2.149,0,0,1-.956.2,2.558,2.558,0,0,1-1-.2" transform="translate(120.591 37.806)" fill="#3c2e7e"/>
        <path id="Fill_57" data-name="Fill 57" d="M1.515.676H0V0H3.831V.676H2.316V5.141h-.8Z" transform="translate(124.57 37.899)" fill="#3c2e7e"/>
        <path id="Fill_58" data-name="Fill 58" d="M2.237,5.329A2.115,2.115,0,0,1,1.071,5a2.149,2.149,0,0,1-.788-.935A3.338,3.338,0,0,1,0,2.646,3.278,3.278,0,0,1,.283,1.232,2.125,2.125,0,0,1,1.071.318,2.156,2.156,0,0,1,2.237,0,2.159,2.159,0,0,1,3.4.318a2.135,2.135,0,0,1,.789.914,3.3,3.3,0,0,1,.281,1.413,3.355,3.355,0,0,1-.281,1.423A2.159,2.159,0,0,1,3.4,5,2.118,2.118,0,0,1,2.237,5.329ZM2.237.7a1.219,1.219,0,0,0-1.029.522A2.366,2.366,0,0,0,.825,2.646,2.95,2.95,0,0,0,1,3.693a1.537,1.537,0,0,0,.5.7,1.2,1.2,0,0,0,.745.243,1.207,1.207,0,0,0,.745-.243,1.516,1.516,0,0,0,.494-.7,2.9,2.9,0,0,0,.173-1.047A2.371,2.371,0,0,0,3.265,1.22,1.221,1.221,0,0,0,2.237.7Z" transform="translate(128.809 37.805)" fill="#3c2e7e"/>
        <path id="Fill_59" data-name="Fill 59" d="M1.115,5.015A2.168,2.168,0,0,1,.3,4.1,3.175,3.175,0,0,1,0,2.676a3.116,3.116,0,0,1,.306-1.42,2.264,2.264,0,0,1,.835-.93A2.219,2.219,0,0,1,2.323,0a1.863,1.863,0,0,1,.821.18,2.045,2.045,0,0,1,.631.464l-.431.517a1.366,1.366,0,0,0-1-.462,1.335,1.335,0,0,0-.789.24,1.573,1.573,0,0,0-.533.678A2.57,2.57,0,0,0,.824,2.653a2.33,2.33,0,0,0,.4,1.448,1.3,1.3,0,0,0,1.086.53,1.5,1.5,0,0,0,1.139-.55l.431.5a2.016,2.016,0,0,1-1.6.745,2.209,2.209,0,0,1-1.17-.314" transform="translate(134.067 37.805)" fill="#3c2e7e"/>
        <path id="Fill_60" data-name="Fill 60" d="M0,0H.8V2.441H.824L2.787,0h.895L2.088,1.986,3.941,5.141H3.053L1.6,2.614l-.8.972V5.141H0Z" transform="translate(138.854 37.899)" fill="#3c2e7e"/>
        <path id="Fill_61" data-name="Fill 61" d="M.829,5.128A2.523,2.523,0,0,1,0,4.568l.472-.55a2.19,2.19,0,0,0,.643.447,1.74,1.74,0,0,0,.73.165,1.144,1.144,0,0,0,.714-.2.646.646,0,0,0,.259-.538.634.634,0,0,0-.1-.364.8.8,0,0,0-.259-.241,4.185,4.185,0,0,0-.467-.219L1.28,2.754A1.427,1.427,0,0,1,.236,1.413,1.266,1.266,0,0,1,.452.69a1.485,1.485,0,0,1,.6-.506A1.957,1.957,0,0,1,1.915,0a2.175,2.175,0,0,1,.856.172,2.122,2.122,0,0,1,.7.471l-.415.51A1.7,1.7,0,0,0,1.915.7,1.017,1.017,0,0,0,1.28.879a.582.582,0,0,0-.235.487.537.537,0,0,0,.113.345.914.914,0,0,0,.276.228,4.66,4.66,0,0,0,.443.2l.714.306a1.924,1.924,0,0,1,.774.53,1.294,1.294,0,0,1,.27.851,1.372,1.372,0,0,1-.219.758,1.519,1.519,0,0,1-.628.541,2.151,2.151,0,0,1-.958.2,2.547,2.547,0,0,1-1-.2" transform="translate(143.021 37.806)" fill="#3c2e7e"/>
        <path id="Fill_62" data-name="Fill 62" d="M.8,5.142H0V0H1.554c1.3,0,1.962.523,1.962,1.555a1.462,1.462,0,0,1-.53,1.22,2.232,2.232,0,0,1-1.4.411H.8V5.141Zm0-4.5v1.9h.706a1.448,1.448,0,0,0,.92-.243.911.911,0,0,0,.3-.745.785.785,0,0,0-.3-.7A1.69,1.69,0,0,0,1.475.644Z" transform="translate(149.191 37.899)" fill="#3c2e7e"/>
        <path id="Fill_63" data-name="Fill 63" d="M0,0H.847l.77,2.668c.041.146.079.283.114.408s.067.241.1.345q.158.6.259.926H2.12c.13-.439.235-.811.314-1.114-.011.036.042-.153.157-.565L3.352,0h.815L2.559,5.141H1.617Z" transform="translate(153.012 37.899)" fill="#3c2e7e"/>
        <path id="Fill_64" data-name="Fill 64" d="M1.515.676H0V0H3.829V.676H2.315V5.141h-.8Z" transform="translate(157.376 37.899)" fill="#3c2e7e"/>
        <path id="Fill_65" data-name="Fill 65" d="M0,0H.8V4.465H2.983v.676H0Z" transform="translate(163.663 37.899)" fill="#3c2e7e"/>
        <path id="Fill_66" data-name="Fill 66" d="M1.515.676H0V0H3.829V.676H2.315V5.141h-.8Z" transform="translate(166.143 37.899)" fill="#3c2e7e"/>
        <path id="Fill_67" data-name="Fill 67" d="M1.374,5.141H0V0H1.336A2.464,2.464,0,0,1,3.168.652a2.616,2.616,0,0,1,.639,1.9A2.7,2.7,0,0,1,3.171,4.47,2.368,2.368,0,0,1,1.374,5.141ZM.8.652V4.489h.479A1.613,1.613,0,0,0,2.548,4a2.131,2.131,0,0,0,.436-1.448,2.065,2.065,0,0,0-.433-1.425A1.64,1.64,0,0,0,1.279.652Z" transform="translate(170.859 37.899)" fill="#3c2e7e"/>
      </g>
    </g>
  </g>
</svg>
