<svg xmlns="http://www.w3.org/2000/svg" xmlns:xlink="http://www.w3.org/1999/xlink" width="370" height="466.125" viewBox="0 0 370 466.125">
  <defs>
    <linearGradient id="linear-gradient" x1="0.5" x2="0.5" y2="1" gradientUnits="objectBoundingBox">
      <stop offset="0" stop-color="#6c58b1"/>
      <stop offset="1" stop-color="#3e3080"/>
    </linearGradient>
  </defs>
  <g id="Group_1158" data-name="Group 1158" transform="translate(-960 -306.625)">
    <path id="Path_50" data-name="Path 50" d="M0-.125,355,0a15,15,0,0,1,15,15V451a15,15,0,0,1-15,15H.914L0,15Z" transform="translate(960 306.751)" fill="url(#linear-gradient)"/>
    <text id="Performance_Sector_M" data-name="Performance Sector M" transform="translate(1051 385.751)" fill="#fff" font-size="20" font-family="Assistant-SemiBold, Assistant" font-weight="600"><tspan x="0" y="20">Welcome to Finwave</tspan></text>
    <ellipse id="Ellipse_10" data-name="Ellipse 10" cx="112.655" cy="19.272" rx="112.655" ry="19.272" transform="translate(1037.146 675.237)" fill="rgba(0,0,0,0.25)" opacity="0.234" style="mix-blend-mode: multiply;isolation: isolate"/>
    <path id="Path_56" data-name="Path 56" d="M404.214,337.516c-39.509-8.319-69.617-37.554-87.068-84.541a244.749,244.749,0,0,1-14.185-65.744l-.679-13.4,105.639-37.339,105.639,37.339-.679,13.4A244.753,244.753,0,0,1,498.7,252.975c-17.451,46.987-47.559,76.222-87.068,84.541l-3.707.781Z" transform="translate(735.372 345.537)" fill="#89caf7"/>
    <path id="Path_57" data-name="Path 57" d="M484.223,180.831l-83.671-29.575h0l-83.673,29.575s5.666,112.065,83.673,128.493h0C478.557,292.9,484.223,180.831,484.223,180.831Z" transform="translate(742.742 352.991)" fill="#d2ebff"/>
    <g id="Group_23" data-name="Group 23" transform="translate(1134.31 557.041)">
      <path id="Path_58" data-name="Path 58" d="M372.339,250.554l38.365-5.481h33.728l30.144,5.9L422.72,277.115Z" transform="translate(-363.563 -156.678)" fill="#073a93"/>
      <path id="Path_59" data-name="Path 59" d="M445.713,276.307S377.836,239,369.825,251.222c-11.571,17.663,6.113,26.561,69.143,43.425Z" transform="translate(-366.508 -154.816)" fill="#3c2e7e"/>
      <g id="Group_18" data-name="Group 18" transform="translate(71.847 123.253)">
        <path id="Path_60" data-name="Path 60" d="M440.316,285.12h0a7.954,7.954,0,0,0-4.307-10.393l-15.674-6.491-6.086,14.7,15.674,6.489A7.955,7.955,0,0,0,440.316,285.12Z" transform="translate(-414.249 -268.236)" fill="#1858b5"/>
        <path id="Path_61" data-name="Path 61" d="M419.02,269.811l11.859,4.911a5.39,5.39,0,1,1-4.125,9.96l-11.859-4.911Z" transform="translate(-413.923 -267.441)" fill="#489bff"/>
        <path id="Path_62" data-name="Path 62" d="M415.275,276.356l15.674,6.491a7.94,7.94,0,0,0,9.755-3.12,7.84,7.84,0,0,1-10.781,5.6l-15.674-6.489Z" transform="translate(-414.249 -264.136)" fill="#063272" opacity="0.45"/>
        <path id="Path_63" data-name="Path 63" d="M418.394,278.674l2.5-6.051a.6.6,0,0,1,.784-.324h0a.6.6,0,0,1,.324.783l-2.506,6.05a.6.6,0,0,1-.783.325h0A.6.6,0,0,1,418.394,278.674Z" transform="translate(-412.179 -266.207)" fill="#e6e6e6"/>
        <path id="Path_64" data-name="Path 64" d="M420.845,279.689l2.506-6.051a.6.6,0,0,1,.783-.324h0a.6.6,0,0,1,.325.783l-2.506,6.051a.6.6,0,0,1-.783.324h0A.6.6,0,0,1,420.845,279.689Z" transform="translate(-410.941 -265.695)" fill="#e6e6e6"/>
        <path id="Path_65" data-name="Path 65" d="M423.542,280.806l2.506-6.051a.6.6,0,0,1,.783-.325h0a.6.6,0,0,1,.325.783l-2.506,6.051a.6.6,0,0,1-.783.325h0A.6.6,0,0,1,423.542,280.806Z" transform="translate(-409.58 -265.131)" fill="#e6e6e6"/>
      </g>
      <path id="Path_66" data-name="Path 66" d="M465.086,245.789c-1.043-3.586-6.238-9.659-10.857-22.112-4.8-12.947-25.262-14.342-25.262-14.342l-7.943,4.251-7.943-4.251s-20.461,1.4-25.263,14.342c-4.617,12.453-9.812,18.526-10.857,22.112s4.593,26.792,20.774,30.078h46.578C460.493,272.581,466.13,249.374,465.086,245.789Z" transform="translate(-361.29 -174.724)" fill="#489bff"/>
      <g id="Group_21" data-name="Group 21" transform="translate(43.621)">
        <g id="Group_19" data-name="Group 19" transform="translate(8.218 34.695)">
          <path id="Path_67" data-name="Path 67" d="M417.678,209.391v6.366s-1.469,7.108-8.393,8.291a10.806,10.806,0,0,1-8.331-8.291v-6.366Z" transform="translate(-400.954 -209.391)" fill="#f49290"/>
        </g>
        <g id="Group_20" data-name="Group 20">
          <path id="Path_68" data-name="Path 68" d="M396.1,208.532s-2.367-14.875,3.291-16.682c1.541-.492.415-5.4,9.028-5.464,11.76-.083,21.025-1.663,19.481,22.351Z" transform="translate(-395.432 -186.337)" fill="#073a93"/>
          <path id="Path_69" data-name="Path 69" d="M403.62,203.539a4.063,4.063,0,1,0-4.063,4.063A4.062,4.062,0,0,0,403.62,203.539Z" transform="translate(-395.493 -179.702)" fill="#ffb5b1"/>
          <path id="Path_70" data-name="Path 70" d="M420.066,203.539A4.063,4.063,0,1,0,416,207.6,4.062,4.062,0,0,0,420.066,203.539Z" transform="translate(-387.189 -179.702)" fill="#ffb5b1"/>
          <path id="Path_71" data-name="Path 71" d="M424.432,199.416l-.021-.008v0H424.4a6.4,6.4,0,0,1-4.027-5.394l-1.779.5a27.176,27.176,0,0,1-15.046-.143l-1.419-.357a6.453,6.453,0,0,1-4.206,5.394h-.033l-.113,6.584a22,22,0,0,0,4.208,12.071,11.319,11.319,0,0,0,18.223,0,22,22,0,0,0,4.206-12.071l0-6.555Z" transform="translate(-394.339 -182.461)" fill="#ffb5b1"/>
        </g>
      </g>
      <rect id="Rectangle_22" data-name="Rectangle 22" width="51.435" height="34.29" rx="2.866" transform="translate(34.429 71.461)" fill="#d2ebff"/>
      <circle id="Ellipse_11" data-name="Ellipse 11" cx="5.34" cy="5.34" r="5.34" transform="translate(54.648 82.914)" fill="#89caf7"/>
      <path id="Path_72" data-name="Path 72" d="M392.37,276.307S460.247,239,468.258,251.222c11.571,17.663-6.115,26.561-69.143,43.425Z" transform="translate(-353.449 -154.816)" fill="#3c2e7e"/>
      <g id="Group_22" data-name="Group 22" transform="translate(19.604 123.253)">
        <path id="Path_73" data-name="Path 73" d="M380.142,285.12h0a7.953,7.953,0,0,1,4.307-10.393l15.672-6.491,6.087,14.7-15.674,6.489A7.955,7.955,0,0,1,380.142,285.12Z" transform="translate(-379.534 -268.236)" fill="#1858b5"/>
        <path id="Path_74" data-name="Path 74" d="M403.1,279.771l-11.859,4.911a5.39,5.39,0,1,1-4.125-9.96l11.859-4.911Z" transform="translate(-377.394 -267.441)" fill="#489bff"/>
        <path id="Path_75" data-name="Path 75" d="M405.109,276.356l-15.674,6.491a7.94,7.94,0,0,1-9.755-3.12,7.845,7.845,0,0,0,.388,1.293,7.955,7.955,0,0,0,10.393,4.306l15.674-6.489Z" transform="translate(-379.461 -264.136)" fill="#063272" opacity="0.45"/>
        <path id="Path_76" data-name="Path 76" d="M394.356,278.674l-2.506-6.051a.6.6,0,0,0-.783-.324h0a.6.6,0,0,0-.324.783l2.506,6.05a.6.6,0,0,0,.783.325h0A.6.6,0,0,0,394.356,278.674Z" transform="translate(-373.897 -266.207)" fill="#e6e6e6"/>
        <path id="Path_77" data-name="Path 77" d="M391.9,279.689l-2.5-6.051a.6.6,0,0,0-.783-.324h0a.6.6,0,0,0-.325.783l2.506,6.051a.6.6,0,0,0,.783.324h0A.6.6,0,0,0,391.9,279.689Z" transform="translate(-375.135 -265.695)" fill="#e6e6e6"/>
        <path id="Path_78" data-name="Path 78" d="M389.209,280.806l-2.506-6.051a.6.6,0,0,0-.783-.325h0a.6.6,0,0,0-.325.783l2.506,6.051a.6.6,0,0,0,.783.325h0A.6.6,0,0,0,389.209,280.806Z" transform="translate(-376.497 -265.131)" fill="#e6e6e6"/>
      </g>
    </g>
    <g id="Group_28" data-name="Group 28" transform="translate(1034 564.167)">
      <g id="Group_26" data-name="Group 26">
        <g id="Group_24" data-name="Group 24" transform="translate(22.175 6.659)">
          <path id="Path_79" data-name="Path 79" d="M328.075,276.061s-17.982-28.708-12.417-32.868,11.022,12.739,13.869,10.029-9.921-26.851-3.892-32.043,5.579,12.437,10.7,15.711-2.771-24.023,3.356-28.288,9.078,9.316,9.078,9.316,6.793-27.032,15.928-21.733-14,32.516-8.572,31.583,11.015-10.119,15.728-3.929-26.154,21.949-21.206,21.545,13.716-6.543,15.237-1.073-25.047,15.338-22.294,17.231,16.64-8.831,18.83-.936S333.59,281.084,328.075,276.061Z" transform="translate(-314.589 -195.497)" fill="#073a93"/>
          <path id="Path_80" data-name="Path 80" d="M322.1,283.816a93.825,93.825,0,0,0,8.318-18.049c1.138-3.35,2.108-6.817,3.049-10.17.429-1.527.856-3.055,1.3-4.576a221.629,221.629,0,0,1,20.809-48.683l.351.2a221.305,221.305,0,0,0-20.771,48.593c-.444,1.521-.873,3.047-1.3,4.572-.941,3.359-1.914,6.831-3.055,10.191a94.34,94.34,0,0,1-8.354,18.128Z" transform="translate(-310.797 -192.043)" fill="#d2ebff"/>
          <path id="Path_81" data-name="Path 81" d="M336.525,227.683a.2.2,0,0,1-.077-.105,91.887,91.887,0,0,1-4.066-19.051.2.2,0,0,1,.4-.041,91.623,91.623,0,0,0,4.047,18.967.2.2,0,0,1-.129.256A.21.21,0,0,1,336.525,227.683Z" transform="translate(-305.605 -189.03)" fill="#d2ebff"/>
          <path id="Path_82" data-name="Path 82" d="M333.485,230.682a.24.24,0,0,1-.05-.047.2.2,0,0,1,.045-.283A159.833,159.833,0,0,1,351,218.7a15.388,15.388,0,0,1,3.68-1.568.2.2,0,1,1,.095.393,15.087,15.087,0,0,0-3.582,1.532,159.648,159.648,0,0,0-17.472,11.618A.2.2,0,0,1,333.485,230.682Z" transform="translate(-305.092 -184.573)" fill="#d2ebff"/>
          <path id="Path_83" data-name="Path 83" d="M334.513,242.462a.23.23,0,0,1-.054-.054,81.883,81.883,0,0,1-7.467-13.376,103.644,103.644,0,0,1-3.6-10.742.2.2,0,1,1,.388-.114,103.436,103.436,0,0,0,3.582,10.7,81.442,81.442,0,0,0,7.431,13.307.2.2,0,0,1-.283.28Z" transform="translate(-310.147 -184.119)" fill="#d2ebff"/>
          <path id="Path_84" data-name="Path 84" d="M330.769,236.52a.2.2,0,0,1-.075-.235.2.2,0,0,1,.259-.122,3.457,3.457,0,0,0,1.816.012,30.65,30.65,0,0,0,4.8-1.49c.29-.108.579-.215.87-.321,4.593-1.678,9.388-2.957,14.026-4.194a.2.2,0,0,1,.1.391c-4.628,1.236-9.415,2.512-13.991,4.182l-.867.321a30.785,30.785,0,0,1-4.868,1.508,3.877,3.877,0,0,1-2.03-.029A.162.162,0,0,1,330.769,236.52Z" transform="translate(-306.463 -177.992)" fill="#d2ebff"/>
          <path id="Path_85" data-name="Path 85" d="M332.568,252.276c-5.374-3.7-11.534-13.654-15.176-21.06a.2.2,0,0,1,.363-.178c3.621,7.361,9.732,17.253,15.042,20.9a.2.2,0,1,1-.229.334Z" transform="translate(-313.184 -177.608)" fill="#d2ebff"/>
          <path id="Path_86" data-name="Path 86" d="M327.772,247.122c-.048-.033-.095-.069-.141-.107a.2.2,0,0,1,.257-.313c.76.616,1.9.423,3.02.116l19.614-5.371a.2.2,0,1,1,.107.39l-19.614,5.371A3.914,3.914,0,0,1,327.772,247.122Z" transform="translate(-308.041 -172.299)" fill="#d2ebff"/>
        </g>
        <g id="Group_25" data-name="Group 25">
          <path id="Path_87" data-name="Path 87" d="M333.127,277.77S302,264.285,304.232,257.7s16.324,4.257,17.134.4-23.42-16.526-21.391-24.231,11.659,7.1,17.742,6.894-15.918-18.249-13.281-25.245,12.774,2.536,12.774,2.536-9.732-26.157.811-26.968,6.894,34.774,10.849,30.922,3.345-14.6,10.747-12.166-9.124,32.95-5.272,29.807,7.6-13.18,11.963-9.529-11.963,26.866-8.617,26.866,8.72-16.729,15-11.456S340.528,278.784,333.127,277.77Z" transform="translate(-299.854 -191.072)" fill="#489bff"/>
          <path id="Path_88" data-name="Path 88" d="M331.237,284.589a93.928,93.928,0,0,0-3.38-19.611c-.962-3.41-2.126-6.823-3.254-10.122-.513-1.5-1.026-3.005-1.523-4.515a221.829,221.829,0,0,1-10.453-51.974l.4-.032a221.577,221.577,0,0,0,10.434,51.88c.5,1.506,1.01,3.008,1.523,4.51,1.129,3.3,2.3,6.723,3.261,10.142a94.445,94.445,0,0,1,3.394,19.7Z" transform="translate(-293.404 -187.405)" fill="#d2ebff"/>
          <path id="Path_89" data-name="Path 89" d="M320.529,223.754a.212.212,0,0,1-.123-.041A92.052,92.052,0,0,1,306.243,210.3a.2.2,0,1,1,.309-.262,91.656,91.656,0,0,0,14.1,13.352.2.2,0,0,1,.038.284A.2.2,0,0,1,320.529,223.754Z" transform="translate(-296.652 -181.532)" fill="#d2ebff"/>
          <path id="Path_90" data-name="Path 90" d="M317.214,231.976a.211.211,0,0,1-.068-.011.2.2,0,0,1-.123-.259,160.081,160.081,0,0,1,7.844-19.549,15.493,15.493,0,0,1,2.146-3.383.206.206,0,0,1,.287-.015.2.2,0,0,1,.015.286,15.034,15.034,0,0,0-2.086,3.3,159.8,159.8,0,0,0-7.824,19.5A.2.2,0,0,1,317.214,231.976Z" transform="translate(-291.19 -182.167)" fill="#d2ebff"/>
          <path id="Path_91" data-name="Path 91" d="M327.256,237.091a.214.214,0,0,1-.075-.014,81.967,81.967,0,0,1-13.752-6.8,104.209,104.209,0,0,1-9.063-6.822.2.2,0,0,1-.029-.286.2.2,0,0,1,.284-.029,103.785,103.785,0,0,0,9.027,6.8,81.715,81.715,0,0,0,13.683,6.763.2.2,0,0,1-.075.39Z" transform="translate(-297.613 -174.902)" fill="#d2ebff"/>
          <path id="Path_92" data-name="Path 92" d="M319.655,238.431a.2.2,0,0,1-.051-.4,3.46,3.46,0,0,0,1.506-1.022,30.5,30.5,0,0,0,3.117-3.953l.536-.758c2.838-3.99,6.069-7.765,9.192-11.418a.2.2,0,0,1,.309.263c-3.118,3.645-6.342,7.415-9.171,11.389l-.533.757A30.791,30.791,0,0,1,321.4,237.3a3.876,3.876,0,0,1-1.692,1.129A.2.2,0,0,1,319.655,238.431Z" transform="translate(-289.958 -176.056)" fill="#d2ebff"/>
          <path id="Path_93" data-name="Path 93" d="M331.219,246.292c-6.531,0-17.265-4.721-24.472-8.765a.2.2,0,0,1,.2-.354c7.163,4.02,17.818,8.712,24.272,8.712a.2.2,0,1,1,0,.406Z" transform="translate(-296.425 -167.807)" fill="#d2ebff"/>
          <path id="Path_94" data-name="Path 94" d="M323.345,249.1c-.059,0-.117,0-.178-.009a.2.2,0,0,1-.185-.218.207.207,0,0,1,.22-.185c.977.075,1.807-.728,2.558-1.618L338.9,231.513a.2.2,0,1,1,.31.26L326.07,247.335A3.925,3.925,0,0,1,323.345,249.1Z" transform="translate(-288.176 -170.688)" fill="#d2ebff"/>
        </g>
      </g>
      <g id="Group_27" data-name="Group 27" transform="translate(14.541 82.651)">
        <path id="Path_95" data-name="Path 95" d="M312.81,251.872l4.969,30.759a9.007,9.007,0,0,0,8.89,7.568h15.143a9.007,9.007,0,0,0,8.89-7.568l4.969-30.759Z" transform="translate(-307.853 -243.023)" fill="#d2ebff"/>
        <path id="Path_96" data-name="Path 96" d="M355.67,251.872H312.81l.688,4.262h33.044l-4.282,26.5a9.005,9.005,0,0,1-8.89,7.568h8.441a9.005,9.005,0,0,0,8.89-7.568l4.282-26.5h0Z" transform="translate(-307.853 -243.023)" fill="#accfe5"/>
        <path id="Path_97" data-name="Path 97" d="M357.812,245.992H313.995a4.492,4.492,0,0,0-4.479,4.479h0a4.491,4.491,0,0,0,4.479,4.479h43.818a4.491,4.491,0,0,0,4.479-4.479h0A4.492,4.492,0,0,0,357.812,245.992Z" transform="translate(-309.516 -245.992)" fill="#d2ebff"/>
      </g>
    </g>
    <g id="Group_31" data-name="Group 31" transform="translate(1171.169 518.554)">
      <rect id="Rectangle_23" data-name="Rectangle 23" width="97.319" height="30.06" rx="3.02" fill="#ffcb31"/>
      <g id="Group_29" data-name="Group 29" transform="translate(7.054 4.228)">
        <rect id="Rectangle_24" data-name="Rectangle 24" width="15.902" height="12.074" rx="1.255" transform="translate(0 9.242)" fill="#fff"/>
        <path id="Path_98" data-name="Path 98" d="M408.316,171.447h-1.5v-2.376a4,4,0,0,0-8,0v2.376h-1.5v-2.376a5.5,5.5,0,0,1,11,0Z" transform="translate(-394.865 -163.572)" fill="#fff"/>
        <path id="Path_99" data-name="Path 99" d="M403.21,173.229a1.677,1.677,0,1,0-2.5,1.451l-.579,3.3h2.813l-.579-3.3A1.669,1.669,0,0,0,403.21,173.229Z" transform="translate(-393.582 -159.543)" fill="#ffcb31"/>
      </g>
      <g id="Group_30" data-name="Group 30" transform="translate(37.823 13.179)">
        <circle id="Ellipse_12" data-name="Ellipse 12" cx="2.752" cy="2.752" r="2.752" fill="#fff"/>
        <circle id="Ellipse_13" data-name="Ellipse 13" cx="2.752" cy="2.752" r="2.752" transform="translate(10.502)" fill="#fff"/>
        <path id="Path_100" data-name="Path 100" d="M435.594,172.271a2.752,2.752,0,1,1-2.751-2.751A2.752,2.752,0,0,1,435.594,172.271Z" transform="translate(-409.085 -169.52)" fill="#fff"/>
        <path id="Path_101" data-name="Path 101" d="M442.573,172.271a2.752,2.752,0,1,1-2.753-2.751A2.753,2.753,0,0,1,442.573,172.271Z" transform="translate(-405.561 -169.52)" fill="#fff"/>
        <path id="Path_102" data-name="Path 102" d="M449.55,172.271a2.751,2.751,0,1,1-2.751-2.751A2.752,2.752,0,0,1,449.55,172.271Z" transform="translate(-402.038 -169.52)" fill="#fff"/>
      </g>
    </g>
    <g id="Group_33" data-name="Group 33" transform="translate(1047.416 474.262)">
      <rect id="Rectangle_25" data-name="Rectangle 25" width="76.347" height="46.019" rx="3.118" fill="#489bff"/>
      <rect id="Rectangle_26" data-name="Rectangle 26" width="76.347" height="10.361" transform="translate(0 12.833)" fill="#3c2e7e"/>
      <g id="Group_32" data-name="Group 32" transform="translate(49.709 29.213)">
        <path id="Path_103" data-name="Path 103" d="M362.522,150.743h-19a1.726,1.726,0,0,0-1.728,1.726h0a1.728,1.728,0,0,0,1.728,1.728h19a1.726,1.726,0,0,0,1.726-1.728h0A1.725,1.725,0,0,0,362.522,150.743Z" transform="translate(-341.799 -150.743)" fill="#3c2e7e"/>
        <path id="Path_104" data-name="Path 104" d="M359.045,155.23h-8.634a1.727,1.727,0,0,0-1.728,1.726h0a1.728,1.728,0,0,0,1.728,1.728h8.634a1.726,1.726,0,0,0,1.726-1.728h0A1.726,1.726,0,0,0,359.045,155.23Z" transform="translate(-338.323 -148.477)" fill="#3c2e7e"/>
      </g>
    </g>
  </g>
</svg>
