<svg xmlns="http://www.w3.org/2000/svg" width="441.045" height="129" viewBox="0 0 441.045 129"><g transform="translate(-351 -658.75)"><rect width="441.045" height="129" rx="3" transform="translate(351 658.75)" fill="#efedf8"/><g transform="translate(361 741.75)" fill="#fff" stroke="#a3a3a3" stroke-width="0.5"><rect width="418.045" height="40" rx="3" stroke="none"/><rect x="0.25" y="0.25" width="417.545" height="39.5" rx="2.75" fill="none"/></g><text transform="translate(377 748.75)" font-size="20" font-family="Assistant-Light, Assistant" font-weight="300" opacity="0.553"><tspan x="0" y="20">Captcha</tspan></text><text transform="matrix(0.995, -0.105, 0.105, 0.995, 386.283, 716.108)" fill="#3c2e7e" font-size="30" font-family="Assistant-SemiBold, Assistant" font-weight="600"><tspan x="0" y="0" xml:space="preserve">x  Z  X  F  k  c </tspan></text><g transform="translate(-810.307 -88.075)"><g transform="translate(1546.307 775.699)"><path d="M1622.339,1163.852l-2.317-.657,5.448-5.295,1.863,7.356c-.08-.02-.137-.032-.194-.048-.687-.194-1.376-.381-2.06-.588-.164-.05-.229,0-.309.129a12.985,12.985,0,0,1-5.377,4.924,12.6,12.6,0,0,1-5.073,1.319,13.027,13.027,0,0,1-9.48-3.351,12.6,12.6,0,0,1-2.974-3.882c-.02-.041-.039-.083-.071-.151l2.243-1.085c2.384,4.247,5.951,6.332,10.835,5.866A10.169,10.169,0,0,0,1622.339,1163.852Z" transform="translate(-1599.891 -1144.789)" fill="#3c2e7e"/><path d="M1571.7,782.853l-2.2,1.12c-2.538-4.251-6.213-6.254-11.167-5.591a10.144,10.144,0,0,0-7.029,4.475l2.318.657-5.449,5.3-1.865-7.362.916.258c.451.128.9.251,1.351.387a.208.208,0,0,0,.285-.111,13,13,0,0,1,4.911-4.7,12.774,12.774,0,0,1,5.577-1.571,13.089,13.089,0,0,1,12.3,6.985c.016.03.03.062.043.093A.326.326,0,0,1,1571.7,782.853Z" transform="translate(-1546.307 -775.699)" fill="#3c2e7e"/></g></g></g></svg>