<svg xmlns="http://www.w3.org/2000/svg" xmlns:xlink="http://www.w3.org/1999/xlink" width="187.968" height="48.061" viewBox="0 0 187.968 48.061"><defs><clipPath id="a"><path d="M0,0H23.253V28.173H0Z" fill="none"/></clipPath><clipPath id="b"><path d="M0,48.061H187.968V0H0Z" fill="none"/></clipPath></defs><g transform="translate(-92 -20)"><g transform="translate(92 19)"><path d="M15.753,12.989a1.777,1.777,0,0,1,0,2.542,1.894,1.894,0,0,1-1.345.5H3.833V26.863a1.887,1.887,0,0,1-1.916,1.916A1.887,1.887,0,0,1,0,26.863V1.915A1.837,1.837,0,0,1,.553.535,1.887,1.887,0,0,1,1.917,0H18.573a1.879,1.879,0,0,1,1.363.5,1.73,1.73,0,0,1,.515,1.307,1.63,1.63,0,0,1-.515,1.253,1.924,1.924,0,0,1-1.363.479H3.833v8.954H14.409a1.894,1.894,0,0,1,1.345.5" transform="translate(47.712 5.82)" fill="#3c2e7e"/><path d="M2.432,28.3a1.827,1.827,0,0,1-1.88-1.88v-16.4a1.823,1.823,0,0,1,.534-1.365,1.866,1.866,0,0,1,1.346-.515,1.857,1.857,0,0,1,1.362.515,1.857,1.857,0,0,1,.517,1.365v16.4a1.866,1.866,0,0,1-.517,1.346A1.794,1.794,0,0,1,2.432,28.3Zm0-23.436A2.351,2.351,0,0,1,.717,4.145,2.354,2.354,0,0,1,0,2.43,2.357,2.357,0,0,1,.717.716,2.357,2.357,0,0,1,2.432,0,2.355,2.355,0,0,1,4.145.716,2.349,2.349,0,0,1,4.863,2.43a2.347,2.347,0,0,1-.718,1.715A2.348,2.348,0,0,1,2.432,4.863Z" transform="translate(71.038 6.3)" fill="#3c2e7e"/><path d="M14.592,1.106A7.787,7.787,0,0,1,17.762,4.33a10.615,10.615,0,0,1,1.142,5.1V18.5a1.88,1.88,0,1,1-3.759,0V9.434a5.95,5.95,0,0,0-1.6-4.514A5.905,5.905,0,0,0,9.287,3.389a6.3,6.3,0,0,0-2.821.627,4.985,4.985,0,0,0-1.989,1.7,4.182,4.182,0,0,0-.718,2.394V18.5a1.864,1.864,0,0,1-.517,1.346,1.812,1.812,0,0,1-1.363.534A1.825,1.825,0,0,1,0,18.5V2.064A1.815,1.815,0,0,1,.534.7,1.86,1.86,0,0,1,1.88.185,1.844,1.844,0,0,1,3.242.7a1.848,1.848,0,0,1,.517,1.364v.4A8.24,8.24,0,0,1,6.559.646,9.268,9.268,0,0,1,10.022,0a9.391,9.391,0,0,1,4.57,1.106" transform="translate(79.785 14.258)" fill="#3c2e7e"/><path d="M25.3.406a1.538,1.538,0,0,1,.387,1.106A2.913,2.913,0,0,1,25.5,2.578L20.045,18.941a1.815,1.815,0,0,1-.663.866,1.77,1.77,0,0,1-1.069.35,1.908,1.908,0,0,1-1.125-.35,1.592,1.592,0,0,1-.644-.866L12.934,5.564l-3.8,13.377a1.779,1.779,0,0,1-.682.866,1.862,1.862,0,0,1-2.174,0,1.787,1.787,0,0,1-.682-.866L.148,2.578A3.441,3.441,0,0,1,0,1.549,1.369,1.369,0,0,1,1.548,0,1.693,1.693,0,0,1,2.709.406,2.948,2.948,0,0,1,3.464,1.7l3.98,12.417L11.2,1.4A2.057,2.057,0,0,1,11.846.388,1.8,1.8,0,0,1,13.043,0a1.748,1.748,0,0,1,1.162.388A2.048,2.048,0,0,1,14.85,1.4l3.315,12.969L22.221,1.7C22.562.566,23.2,0,24.136,0A1.532,1.532,0,0,1,25.3.406" transform="translate(99.609 14.442)" fill="#3c2e7e"/><path d="M9.432,20.451a9.035,9.035,0,0,1-4.808-1.326,9.363,9.363,0,0,1-3.39-3.667A11.056,11.056,0,0,1,0,10.243,10.432,10.432,0,0,1,1.327,5.03,9.71,9.71,0,0,1,4.993,1.345,10.251,10.251,0,0,1,10.171,0a10.064,10.064,0,0,1,5.141,1.345A9.943,9.943,0,0,1,18.958,5.03,10.3,10.3,0,0,1,20.3,10.243v8.218a1.88,1.88,0,1,1-3.76,0V17.1a9.047,9.047,0,0,1-7.112,3.355Zm.738-17.136a6.356,6.356,0,0,0-3.334.9,6.535,6.535,0,0,0-2.36,2.489,7.281,7.281,0,0,0-.865,3.535,7.2,7.2,0,0,0,.865,3.52,6.578,6.578,0,0,0,2.36,2.469,6.355,6.355,0,0,0,3.334.9,6.357,6.357,0,0,0,3.335-.9,6.437,6.437,0,0,0,2.339-2.469,7.318,7.318,0,0,0,.847-3.52,7.4,7.4,0,0,0-.847-3.535,6.3,6.3,0,0,0-5.674-3.393Z" transform="translate(125.918 14.295)" fill="#3c2e7e"/><path d="M19.162.793a1.538,1.538,0,0,1,.258.867,1.577,1.577,0,0,1-.184.7L11.424,18.829A1.865,1.865,0,0,1,8.7,19.77a2.392,2.392,0,0,1-.735-.941L.148,2.357A1.437,1.437,0,0,1,0,1.7,1.631,1.631,0,0,1,1.032.185,1.557,1.557,0,0,1,1.807,0a1.65,1.65,0,0,1,.847.239A1.6,1.6,0,0,1,3.28.923L9.693,14.739,16.031.923a1.565,1.565,0,0,1,.644-.683,1.81,1.81,0,0,1,.9-.239,1.871,1.871,0,0,1,.849.185,1.731,1.731,0,0,1,.737.608" transform="translate(146.332 14.516)" fill="#3c2e7e"/><path d="M10.5,20.452a11.16,11.16,0,0,1-5.418-1.31,9.544,9.544,0,0,1-3.74-3.629A10.355,10.355,0,0,1,0,10.245,10.956,10.956,0,0,1,1.27,4.956,9.25,9.25,0,0,1,4.808,1.309,10.14,10.14,0,0,1,9.948,0a9.309,9.309,0,0,1,4.9,1.253,8.305,8.305,0,0,1,3.17,3.5,11.616,11.616,0,0,1,1.106,5.158,1.549,1.549,0,0,1-.48,1.162,1.687,1.687,0,0,1-1.215.46h-14A6.509,6.509,0,0,0,5.767,15.7,7.251,7.251,0,0,0,10.5,17.281a7.156,7.156,0,0,0,2.3-.405,6.835,6.835,0,0,0,1.97-.993,1.923,1.923,0,0,1,1.216-.405,1.6,1.6,0,0,1,1.107.369,1.613,1.613,0,0,1,.662,1.25,1.339,1.339,0,0,1-.589,1.106,10.165,10.165,0,0,1-3.114,1.622A11.164,11.164,0,0,1,10.5,20.452ZM9.948,3.168A6.391,6.391,0,0,0,5.583,4.642,6.646,6.646,0,0,0,3.464,8.586H15.735a6.571,6.571,0,0,0-1.843-3.943A5.436,5.436,0,0,0,9.948,3.168Z" transform="translate(166.193 14.295)" fill="#3c2e7e"/><path d="M37.221,13.926A18.949,18.949,0,0,0,29.207,3.453C28.916.741,27.5,0,27.5,0l-.251,2.368a19.027,19.027,0,1,0,9.973,11.558" transform="translate(0 1)" fill="#3c2e7e"/><g transform="translate(4.645 1)"><path d="M0,0H23.253V28.173H0Z" transform="translate(0 0)" fill="none"/><g transform="translate(0 0)" clip-path="url(#a)"><path d="M2.059,28.173A12.23,12.23,0,0,1,.005,21.512c-.159-4.23,3.307-7.652,5.921-9.539S22.855,0,22.855,0a8.218,8.218,0,0,1-3.016,9.192S9.063,16.672,7.488,17.819,1.725,22.79,2.059,28.173" transform="translate(0 -0.001)" fill="#ffcb31"/></g></g><path d="M7.426,14.542C9,13.392,15.58,8.955,15.58,8.955A7.845,7.845,0,0,0,18.824,0S8.436,7.23,5.783,9.064C2.08,11.622-.15,14.751.008,18.983c.13,3.5,1.151,5.2,1.5,5.683a19.072,19.072,0,0,0,2.978,1.427c-2.416-6.5,1.371-10.406,2.94-11.55" transform="translate(7.842 12.249)" fill="#ffcb31"/><path d="M.748,0C-.8,2.461.513,6.092.68,6.145A18.945,18.945,0,0,0,12,6.177a19.305,19.305,0,0,0,2.274-.859C2.565,8.982.748,0,.748,0" transform="translate(12.64 32.54)" fill="#ffcb31"/><path d="M3.533,7.4a3.546,3.546,0,0,1-1.777-.462,3.4,3.4,0,0,1-1.285-1.3A3.862,3.862,0,0,1,0,3.722,3.928,3.928,0,0,1,.471,1.795,3.436,3.436,0,0,1,1.756.472,3.484,3.484,0,0,1,3.533,0a3.422,3.422,0,0,1,3.04,1.795,3.917,3.917,0,0,1,.472,1.927,3.851,3.851,0,0,1-.472,1.916A3.417,3.417,0,0,1,5.3,6.943,3.484,3.484,0,0,1,3.533,7.4Zm0-6.763a2.687,2.687,0,0,0-1.437.4,2.788,2.788,0,0,0-1.01,1.1,3.364,3.364,0,0,0-.37,1.587A3.3,3.3,0,0,0,1.086,5.3,2.711,2.711,0,0,0,3.533,6.763,2.711,2.711,0,0,0,5.977,5.3a3.29,3.29,0,0,0,.37-1.577,3.352,3.352,0,0,0-.37-1.587,2.777,2.777,0,0,0-1.01-1.1A2.687,2.687,0,0,0,3.533.642ZM2.908,5.593H2.172V1.737H3.589a1.785,1.785,0,0,1,1.047.285,1.052,1.052,0,0,1,.408.925,1.137,1.137,0,0,1-.2.651,1.04,1.04,0,0,1-.52.406l.887,1.584-.81,0-.7-1.36H2.908v1.36Zm0-3.25v1.3H3.4a1.092,1.092,0,0,0,.642-.162A.546.546,0,0,0,4.268,3c0-.438-.273-.66-.812-.66Z" transform="translate(180.922 5.929)" fill="#3c2e7e"/><path d="M.624,5.544H0V0H1.536A2.648,2.648,0,0,1,3.059.376,1.408,1.408,0,0,1,3.6,1.613a1.516,1.516,0,0,1-.54,1.26A2.35,2.35,0,0,1,1.569,3.3H.624V5.543Zm0-5.037V2.786h.852A1.849,1.849,0,0,0,2.608,2.5a1.065,1.065,0,0,0,.361-.89A.955.955,0,0,0,2.6.757,2.107,2.107,0,0,0,1.443.507Z" transform="translate(47.762 41.728)" fill="#3c2e7e"/><path d="M1.883,4.3a1.81,1.81,0,0,1-.937-.257A1.852,1.852,0,0,1,.258,3.3,2.41,2.41,0,0,1,0,2.152,2.431,2.431,0,0,1,.258,1.005,1.832,1.832,0,0,1,.945.258,1.79,1.79,0,0,1,1.883,0,1.8,1.8,0,0,1,2.82.258a1.874,1.874,0,0,1,.686.747,2.444,2.444,0,0,1,.257,1.147A2.423,2.423,0,0,1,3.506,3.3a1.9,1.9,0,0,1-.686.744A1.822,1.822,0,0,1,1.883,4.3Zm0-3.78a1.064,1.064,0,0,0-.645.207A1.333,1.333,0,0,0,.8,1.3a2.186,2.186,0,0,0-.156.852A1.9,1.9,0,0,0,.986,3.334a1.088,1.088,0,0,0,.9.446,1.079,1.079,0,0,0,.644-.2A1.316,1.316,0,0,0,2.971,3a2.144,2.144,0,0,0,.159-.852A2.144,2.144,0,0,0,2.971,1.3,1.37,1.37,0,0,0,2.527.723,1.067,1.067,0,0,0,1.883.515Z" transform="translate(51.922 43.078)" fill="#3c2e7e"/><path d="M0,0H.633l.642,2.439L1.35,2.8c.079.338.137.594.169.768h.034c.107-.439.2-.815.286-1.13L2.5,0h.617L3.78,2.439l.288,1.13H4.1l.271-1.13L5,0h.591L4.472,4.092H3.713L3.089,1.805l-.16-.666C2.917,1.095,2.878.925,2.81.633H2.776q-.185.836-.3,1.19l-.608,2.27H1.157Z" transform="translate(56.258 43.18)" fill="#3c2e7e"/><path d="M1.942,4.295a1.938,1.938,0,0,1-.983-.257,1.82,1.82,0,0,1-.7-.747A2.406,2.406,0,0,1,0,2.152,2.39,2.39,0,0,1,.259,1.02,1.932,1.932,0,0,1,.937.266,1.661,1.661,0,0,1,1.832,0,1.464,1.464,0,0,1,3.018.511a2.139,2.139,0,0,1,.425,1.4,2.207,2.207,0,0,1-.026.373H.59A1.65,1.65,0,0,0,1.033,3.4a1.35,1.35,0,0,0,.984.4,1.87,1.87,0,0,0,1.038-.329l.227.405a3.1,3.1,0,0,1-.624.308A2.156,2.156,0,0,1,1.942,4.295ZM1.839.5A1.134,1.134,0,0,0,1.03.843a1.58,1.58,0,0,0-.422,1H2.895a1.564,1.564,0,0,0-.279-1A.941.941,0,0,0,1.839.5Z" transform="translate(62.417 43.079)" fill="#3c2e7e"/><path d="M0,.1H.506L.557.853H.582A1.865,1.865,0,0,1,1.1.228,1.059,1.059,0,0,1,1.747,0a.975.975,0,0,1,.422.085L2.05.625A1.322,1.322,0,0,0,1.662.557a.885.885,0,0,0-.569.237,1.817,1.817,0,0,0-.485.734V4.194H0Z" transform="translate(66.89 43.078)" fill="#3c2e7e"/><path d="M1.942,4.295a1.938,1.938,0,0,1-.983-.257,1.82,1.82,0,0,1-.7-.747A2.418,2.418,0,0,1,0,2.152,2.4,2.4,0,0,1,.259,1.02,1.932,1.932,0,0,1,.937.266,1.661,1.661,0,0,1,1.832,0,1.468,1.468,0,0,1,3.019.511a2.144,2.144,0,0,1,.425,1.4,2.36,2.36,0,0,1-.026.373H.59A1.646,1.646,0,0,0,1.034,3.4a1.348,1.348,0,0,0,.983.4,1.87,1.87,0,0,0,1.038-.329l.228.405a3.118,3.118,0,0,1-.626.308A2.156,2.156,0,0,1,1.942,4.295ZM1.839.5A1.134,1.134,0,0,0,1.03.843a1.587,1.587,0,0,0-.422,1H2.895a1.564,1.564,0,0,0-.279-1A.941.941,0,0,0,1.839.5Z" transform="translate(69.353 43.079)" fill="#3c2e7e"/><path d="M1.679,6.125A1.5,1.5,0,0,1,.45,5.561,2.487,2.487,0,0,1,0,3.983,2.517,2.517,0,0,1,.245,2.851,1.884,1.884,0,0,1,.9,2.1a1.6,1.6,0,0,1,.882-.266,1.423,1.423,0,0,1,.59.118,2.811,2.811,0,0,1,.573.363L2.919,1.6V0h.608V6.025H3.021l-.05-.5H2.944a2.154,2.154,0,0,1-.586.435A1.5,1.5,0,0,1,1.679,6.125Zm.194-3.771a1.032,1.032,0,0,0-.629.211A1.428,1.428,0,0,0,.8,3.148a2.04,2.04,0,0,0-.165.835,2.026,2.026,0,0,0,.308,1.19,1.018,1.018,0,0,0,.874.429,1.148,1.148,0,0,0,.561-.143,2.208,2.208,0,0,0,.544-.438V2.8A1.989,1.989,0,0,0,2.4,2.46,1.366,1.366,0,0,0,1.873,2.355Z" transform="translate(73.521 41.247)" fill="#3c2e7e"/><path d="M1.73,5.543H0V0H1.6A2.517,2.517,0,0,1,2.992.333a1.151,1.151,0,0,1,.5,1.026,1.322,1.322,0,0,1-.219.747,1.152,1.152,0,0,1-.608.45V2.59a1.478,1.478,0,0,1,.839.444,1.28,1.28,0,0,1,.309.89A1.408,1.408,0,0,1,3.253,5.13,2.527,2.527,0,0,1,1.73,5.543ZM.626,2.861V5.047h1A2.049,2.049,0,0,0,2.8,4.764a.979.979,0,0,0,.4-.856c0-.695-.528-1.047-1.569-1.047ZM.626.5V2.38h.852c.93,0,1.4-.318,1.4-.944A.8.8,0,0,0,2.54.717,1.936,1.936,0,0,0,1.511.5Z" transform="translate(80.228 41.728)" fill="#3c2e7e"/><path d="M.161,5.8l.117-.5A.883.883,0,0,0,.6,5.367a.756.756,0,0,0,.573-.253,1.84,1.84,0,0,0,.38-.683l.1-.312L0,0H.633l.879,2.347.4,1.147H1.95c.079-.236.16-.495.245-.776L2.3,2.347,3.072,0h.6L2.119,4.472a2.975,2.975,0,0,1-.587,1.033,1.183,1.183,0,0,1-.907.375A1.239,1.239,0,0,1,.161,5.8" transform="translate(84.38 43.179)" fill="#3c2e7e"/><path d="M.465,4.075a.441.441,0,0,1-.329-.139A.488.488,0,0,1,0,3.586a.493.493,0,0,1,.136-.357.437.437,0,0,1,.329-.139.435.435,0,0,1,.329.139.492.492,0,0,1,.134.357.487.487,0,0,1-.134.35A.439.439,0,0,1,.465,4.075Zm0-3.089A.437.437,0,0,1,.136.847.488.488,0,0,1,0,.5.5.5,0,0,1,.136.139.441.441,0,0,1,.465,0,.439.439,0,0,1,.794.139.5.5,0,0,1,.928.5a.487.487,0,0,1-.134.35A.435.435,0,0,1,.465.986Z" transform="translate(90.395 43.298)" fill="#3c2e7e"/><path d="M.876,5.528H0L1.831,0h1l1.83,5.525-.911,0L3.273,3.949H1.35L.876,5.527ZM2.295.684h0c-.175.676-.348,1.3-.514,1.839l-.22.743H3.07l-.219-.743c-.088-.3-.177-.606-.265-.92l-.085-.3,0-.009C2.444,1.1,2.4.952,2.37.845a.693.693,0,0,0-.041-.16Z" transform="translate(93.569 41.745)" fill="#3c2e7e"/><path d="M0,48.061H187.968V0H0Z" transform="translate(0 1)" fill="none"/><g transform="translate(0 1)" clip-path="url(#b)"><path d="M.169,5.527h.86V0H.169Z" transform="translate(98.783 40.746)" fill="#3c2e7e"/><path d="M.86,5.529H0V0H1.805A2.518,2.518,0,0,1,3.266.376,1.4,1.4,0,0,1,3.8,1.6,1.6,1.6,0,0,1,3.49,2.612a1.689,1.689,0,0,1-.849.561L3.99,5.526l-.97,0L1.779,3.292H.86V5.528ZM.86.692V2.6H1.7a1.476,1.476,0,0,0,.924-.248A.892.892,0,0,0,2.944,1.6.789.789,0,0,0,2.636.9,1.664,1.664,0,0,0,1.7.692Z" transform="translate(101.264 40.745)" fill="#3c2e7e"/><path d="M.876,5.528H0L1.831,0h1l1.83,5.525-.91,0L3.273,3.949H1.35L.876,5.527ZM2.295.684h0c-.175.676-.348,1.3-.514,1.839l-.22.743H3.07l-.219-.743c-.088-.3-.177-.606-.265-.92l-.085-.3,0-.009C2.444,1.1,2.4.952,2.37.845a.693.693,0,0,0-.041-.16Z" transform="translate(105.407 40.745)" fill="#3c2e7e"/><path d="M0,0H.886L2.726,3.266l.582,1.164h.034c-.01-.18-.022-.306-.034-.379s-.02-.251-.042-.566-.035-.61-.035-.885V0h.819V5.527H3.164L1.325,2.253.742,1.1H.709l.033.422c.007.068.021.25.043.548s.034.577.034.836V5.527H0Z" transform="translate(110.79 40.745)" fill="#3c2e7e"/><path d="M0,0H3.274V.726H.86V2.421H2.91v.726H.86V5.527H0Z" transform="translate(117.979 40.745)" fill="#3c2e7e"/><path d="M.169,5.527h.862V0H.169Z" transform="translate(122.053 40.746)" fill="#3c2e7e"/><path d="M0,0H.886L2.726,3.266l.582,1.164h.034c-.01-.18-.022-.306-.034-.379s-.02-.251-.042-.566-.034-.61-.034-.885V0h.819V5.527H3.166L1.325,2.253.742,1.1H.709l.033.422c.007.068.021.25.044.548s.033.577.033.836V5.527H0Z" transform="translate(124.534 40.745)" fill="#3c2e7e"/><path d="M.89,5.514a2.707,2.707,0,0,1-.89-.6L.506,4.32A2.378,2.378,0,0,0,1.2,4.8a1.87,1.87,0,0,0,.785.177,1.232,1.232,0,0,0,.768-.215.694.694,0,0,0,.279-.578.682.682,0,0,0-.107-.392.855.855,0,0,0-.277-.259,4.615,4.615,0,0,0-.5-.236l-.768-.337A1.533,1.533,0,0,1,.254,1.519,1.361,1.361,0,0,1,.485.742,1.593,1.593,0,0,1,1.131.2,2.108,2.108,0,0,1,2.058,0a2.329,2.329,0,0,1,.92.185A2.287,2.287,0,0,1,3.73.691l-.448.548A1.819,1.819,0,0,0,2.058.75a1.091,1.091,0,0,0-.682.2.622.622,0,0,0-.253.523.578.578,0,0,0,.121.371.994.994,0,0,0,.3.245,5.219,5.219,0,0,0,.478.219l.768.329a2.054,2.054,0,0,1,.83.57,1.384,1.384,0,0,1,.29.915,1.484,1.484,0,0,1-.234.815,1.637,1.637,0,0,1-.677.582,2.31,2.31,0,0,1-1.028.215A2.75,2.75,0,0,1,.89,5.514" transform="translate(129.647 40.645)" fill="#3c2e7e"/><path d="M1.628.726H0V0H4.118V.726H2.49v4.8H1.628Z" transform="translate(133.925 40.745)" fill="#3c2e7e"/><path d="M2.4,5.73a2.274,2.274,0,0,1-1.253-.35A2.31,2.31,0,0,1,.3,4.374,3.588,3.588,0,0,1,0,2.844,3.525,3.525,0,0,1,.3,1.325,2.285,2.285,0,0,1,1.152.342,2.318,2.318,0,0,1,2.4,0,2.321,2.321,0,0,1,3.657.342a2.3,2.3,0,0,1,.848.983,3.543,3.543,0,0,1,.3,1.519,3.607,3.607,0,0,1-.3,1.53,2.321,2.321,0,0,1-.848,1.005A2.278,2.278,0,0,1,2.4,5.73ZM2.4.751A1.311,1.311,0,0,0,1.3,1.312,2.544,2.544,0,0,0,.887,2.844,3.172,3.172,0,0,0,1.071,3.97a1.653,1.653,0,0,0,.533.747,1.288,1.288,0,0,0,.8.261,1.3,1.3,0,0,0,.8-.261,1.63,1.63,0,0,0,.531-.747,3.121,3.121,0,0,0,.186-1.126A2.549,2.549,0,0,0,3.51,1.312,1.312,1.312,0,0,0,2.4.751Z" transform="translate(138.482 40.643)" fill="#3c2e7e"/><path d="M1.2,5.391A2.331,2.331,0,0,1,.32,4.409,3.414,3.414,0,0,1,0,2.877,3.35,3.35,0,0,1,.329,1.35a2.434,2.434,0,0,1,.9-1A2.385,2.385,0,0,1,2.5,0,2,2,0,0,1,3.38.194a2.2,2.2,0,0,1,.678.5L3.6,1.248a1.469,1.469,0,0,0-1.08-.5,1.435,1.435,0,0,0-.849.258,1.692,1.692,0,0,0-.573.729A2.763,2.763,0,0,0,.886,2.852a2.5,2.5,0,0,0,.435,1.557,1.392,1.392,0,0,0,1.168.57,1.612,1.612,0,0,0,1.225-.591l.463.54a2.168,2.168,0,0,1-1.721.8A2.374,2.374,0,0,1,1.2,5.391" transform="translate(144.134 40.644)" fill="#3c2e7e"/><path d="M0,0H.862V2.624H.886L3,0h.962L2.245,2.135,4.237,5.527H3.283L1.722,2.81.862,3.855V5.527H0Z" transform="translate(149.281 40.745)" fill="#3c2e7e"/><path d="M.892,5.514A2.713,2.713,0,0,1,0,4.911L.508,4.32A2.355,2.355,0,0,0,1.2,4.8a1.87,1.87,0,0,0,.785.177,1.23,1.23,0,0,0,.768-.215.694.694,0,0,0,.279-.578.681.681,0,0,0-.105-.392.86.86,0,0,0-.279-.259,4.5,4.5,0,0,0-.5-.236l-.768-.337A1.535,1.535,0,0,1,.254,1.519,1.361,1.361,0,0,1,.485.742,1.6,1.6,0,0,1,1.132.2,2.1,2.1,0,0,1,2.059,0a2.338,2.338,0,0,1,.92.185A2.282,2.282,0,0,1,3.73.691l-.446.548A1.824,1.824,0,0,0,2.059.75a1.093,1.093,0,0,0-.683.2.625.625,0,0,0-.253.523.578.578,0,0,0,.121.371.983.983,0,0,0,.3.245,5.01,5.01,0,0,0,.476.219l.768.329a2.068,2.068,0,0,1,.832.57,1.392,1.392,0,0,1,.29.915,1.475,1.475,0,0,1-.236.815A1.633,1.633,0,0,1,3,5.514a2.312,2.312,0,0,1-1.03.215A2.739,2.739,0,0,1,.892,5.514" transform="translate(153.761 40.645)" fill="#3c2e7e"/><path d="M.86,5.528H0V0H1.67c1.4,0,2.11.562,2.11,1.672a1.572,1.572,0,0,1-.569,1.312A2.4,2.4,0,0,1,1.7,3.425H.86v2.1ZM.86.692V2.734h.759a1.557,1.557,0,0,0,.989-.261.979.979,0,0,0,.32-.8A.844.844,0,0,0,2.6.916,1.817,1.817,0,0,0,1.586.692Z" transform="translate(160.395 40.745)" fill="#3c2e7e"/><path d="M0,0H.911l.828,2.869c.044.157.085.3.122.439s.072.259.105.371q.17.642.279,1h.034c.139-.472.253-.872.337-1.2-.012.039.046-.164.169-.608L3.6,0H4.48L2.752,5.527H1.739Z" transform="translate(164.503 40.745)" fill="#3c2e7e"/><path d="M1.628.726H0V0H4.117V.726H2.489v4.8h-.86Z" transform="translate(169.194 40.745)" fill="#3c2e7e"/><path d="M0,0H.86V4.8H3.207v.726H0Z" transform="translate(175.953 40.745)" fill="#3c2e7e"/><path d="M1.628.726H0V0H4.117V.726H2.489v4.8h-.86Z" transform="translate(178.619 40.745)" fill="#3c2e7e"/><path d="M1.477,5.527H0V0H1.436A2.649,2.649,0,0,1,3.405.7a2.813,2.813,0,0,1,.686,2.042,2.9,2.9,0,0,1-.683,2.063A2.546,2.546,0,0,1,1.477,5.527ZM.86.7V4.826h.515A1.734,1.734,0,0,0,2.739,4.3a2.291,2.291,0,0,0,.469-1.557A2.22,2.22,0,0,0,2.742,1.21,1.763,1.763,0,0,0,1.375.7Z" transform="translate(183.689 40.745)" fill="#3c2e7e"/></g></g></g></svg>