<svg xmlns="http://www.w3.org/2000/svg" width="27" height="27" viewBox="0 0 27 27"><g transform="translate(-346.5 -571.5)"><g transform="translate(-2341.672 -549.807)"><g transform="translate(2688.671 1121.807)"><circle cx="13" cy="13" r="13" fill="none" stroke="#3c2e7e" stroke-linecap="round" stroke-linejoin="round" stroke-width="1"/></g><g transform="translate(2697.211 1128.263)"><rect width="8.959" height="8.959" rx="1.174" transform="translate(0 4.131)" fill="none" stroke="#3c2e7e" stroke-linecap="round" stroke-miterlimit="10" stroke-width="1"/><path d="M2721.906,1143.227V1141.5a2.406,2.406,0,1,0-4.813,0v1.725" transform="translate(-2715.02 -1139.096)" fill="none" stroke="#3c2e7e" stroke-linecap="round" stroke-miterlimit="10" stroke-width="1"/><path d="M2723.166,1165.622a.548.548,0,1,0-.824.473.1.1,0,0,1,.05.11l-.1.352a.329.329,0,1,0,.636,0l-.094-.348a.1.1,0,0,1,.051-.111A.546.546,0,0,0,2723.166,1165.622Z" transform="translate(-2718.139 -1155.374)" fill="#3c2e7e"/></g></g></g></svg>