<svg xmlns="http://www.w3.org/2000/svg" width="15.677" height="16" viewBox="0 0 15.677 16">
  <g id="Group_1159" data-name="Group 1159" transform="translate(-717.465 -529.794)">
    <g id="Group_1158" data-name="Group 1158">
      <g id="Group_1157" data-name="Group 1157">
        <g id="Group_35" data-name="Group 35" transform="translate(717.465 529.794)">
          <path id="Path_48" data-name="Path 48" d="M-140.127,882.09a.729.729,0,0,0-.207-.51l-3.371-3.439a.7.7,0,0,0-.5-.211h0a.7.7,0,0,0-.5.211l-10.682,10.9a.723.723,0,0,0-.205.467l-.211,3.657a.729.729,0,0,0,.205.552.7.7,0,0,0,.5.211h.041l3.583-.214a.7.7,0,0,0,.457-.21l10.683-10.905A.727.727,0,0,0-140.127,882.09Zm-11.7,10.2-1.6.1a1.263,1.263,0,0,0-.869-.9l.093-1.617,8.262-8.431,2.373,2.423Zm9.259-9.451-2.373-2.423.734-.748,2.373,2.422Z" transform="translate(155.804 -877.93)" fill="#3c2e7e"/>
          <path id="Path_49" data-name="Path 49" d="M-139.994,897.983h-5.3c-.262,0-.474.373-.474.832s.212.832.474.832h5.3c.262,0,.474-.372.474-.832S-139.732,897.983-139.994,897.983Z" transform="translate(155.196 -883.855)" fill="#3c2e7e"/>
        </g>
      </g>
    </g>
  </g>
</svg>
