<svg xmlns="http://www.w3.org/2000/svg" xmlns:xlink="http://www.w3.org/1999/xlink" width="370" height="466.125" viewBox="0 0 370 466.125">
  <defs>
    <linearGradient id="linear-gradient" x1="0.5" x2="0.5" y2="1" gradientUnits="objectBoundingBox">
      <stop offset="0" stop-color="#6c58b1"/>
      <stop offset="1" stop-color="#3e3080"/>
    </linearGradient>
    <linearGradient id="linear-gradient-2" y1="0.5" x2="1" y2="0.5" gradientUnits="objectBoundingBox">
      <stop offset="0" stop-color="#d9dcf9"/>
      <stop offset="1" stop-color="#e6e8fa"/>
    </linearGradient>
  </defs>
  <g id="Group_1158" data-name="Group 1158" transform="translate(-960 -306.625)">
    <path id="Path_50" data-name="Path 50" d="M0-.125,355,0a15,15,0,0,1,15,15V451a15,15,0,0,1-15,15H.914L0,15Z" transform="translate(960 306.751)" fill="url(#linear-gradient)"/>
    <text id="Performance_Sector_M" data-name="Performance Sector M" transform="translate(1051 385.751)" fill="#fff" font-size="20" font-family="Assistant-SemiBold, Assistant" font-weight="600"><tspan x="0" y="20">Welcome to Finwave</tspan></text>
    <ellipse id="Ellipse_14" data-name="Ellipse 14" cx="107.892" cy="18.457" rx="107.892" ry="18.457" transform="translate(1043 673.448)" fill="rgba(0,0,0,0.25)" opacity="0.234" style="mix-blend-mode: multiply;isolation: isolate"/>
    <g id="Group_42" data-name="Group 42" transform="translate(1063.042 592.435)">
      <g id="Group_37" data-name="Group 37" transform="translate(130.242)">
        <g id="Group_36" data-name="Group 36">
          <path id="Path_106" data-name="Path 106" d="M255.222,708.955c0-13.858-9.788-27.747-21.862-27.747S211.5,695.1,211.5,708.955s9.788,25.094,21.862,25.094S255.222,722.814,255.222,708.955Z" transform="translate(-211.499 -681.208)" fill="#67b8ef"/>
          <path id="Path_107" data-name="Path 107" d="M228.385,681.208a16.129,16.129,0,0,0-5.612,1.055c9.35,3.448,16.251,15.063,16.251,26.692s-6.9,21.382-16.251,24.228a19.207,19.207,0,0,0,5.612.866c12.074,0,21.862-11.235,21.862-25.094S240.459,681.208,228.385,681.208Z" transform="translate(-206.524 -681.208)" fill="#34648c" opacity="0.25"/>
        </g>
      </g>
      <g id="Group_39" data-name="Group 39" transform="translate(2.55)">
        <g id="Group_38" data-name="Group 38">
          <path id="Path_108" data-name="Path 108" d="M166.626,708.955c0-13.858-9.788-27.747-21.862-27.747S122.9,695.1,122.9,708.955s9.786,25.094,21.86,25.094S166.626,722.814,166.626,708.955Z" transform="translate(-122.904 -681.208)" fill="#67b8ef"/>
          <path id="Path_109" data-name="Path 109" d="M139.789,681.208a16.121,16.121,0,0,0-5.611,1.055c9.35,3.448,16.251,15.063,16.251,26.692s-6.9,21.382-16.251,24.228a19.2,19.2,0,0,0,5.611.866c12.074,0,21.862-11.235,21.862-25.094S151.863,681.208,139.789,681.208Z" transform="translate(-117.929 -681.208)" fill="#34648c" opacity="0.25"/>
        </g>
      </g>
      <g id="Group_40" data-name="Group 40" transform="translate(0 43.173)">
        <path id="Path_110" data-name="Path 110" d="M124.429,717.042,129.19,746.5a8.623,8.623,0,0,0,8.512,7.248h14.5a8.624,8.624,0,0,0,8.512-7.248l4.761-29.459Z" transform="translate(-119.681 -708.567)" fill="#d2ebff"/>
        <path id="Path_111" data-name="Path 111" d="M165.479,717.042h-41.05l.66,4.082h31.645l-4.1,25.377a8.625,8.625,0,0,1-8.512,7.248h8.084a8.624,8.624,0,0,0,8.512-7.248l4.1-25.377h0Z" transform="translate(-119.681 -708.567)" fill="#accfe5"/>
        <path id="Path_112" data-name="Path 112" d="M167.389,711.162H125.424a4.3,4.3,0,0,0-4.289,4.289h0a4.3,4.3,0,0,0,4.289,4.289h41.965a4.3,4.3,0,0,0,4.289-4.289h0A4.3,4.3,0,0,0,167.389,711.162Z" transform="translate(-121.135 -711.162)" fill="#d2ebff"/>
      </g>
      <g id="Group_41" data-name="Group 41" transform="translate(125.875 43.173)">
        <path id="Path_113" data-name="Path 113" d="M211.762,717.042l4.761,29.459a8.623,8.623,0,0,0,8.512,7.248h14.5a8.623,8.623,0,0,0,8.512-7.248l4.761-29.459Z" transform="translate(-207.016 -708.567)" fill="#d2ebff"/>
        <path id="Path_114" data-name="Path 114" d="M252.812,717.042h-41.05l.66,4.082h31.645l-4.1,25.377a8.623,8.623,0,0,1-8.512,7.248h8.084a8.623,8.623,0,0,0,8.512-7.248l4.1-25.377h0Z" transform="translate(-207.016 -708.567)" fill="#accfe5"/>
        <path id="Path_115" data-name="Path 115" d="M254.723,711.162H212.758a4.3,4.3,0,0,0-4.289,4.289h0a4.3,4.3,0,0,0,4.289,4.289h41.965a4.3,4.3,0,0,0,4.289-4.289h0A4.3,4.3,0,0,0,254.723,711.162Z" transform="translate(-208.469 -711.162)" fill="#d2ebff"/>
      </g>
    </g>
    <path id="Path_116" data-name="Path 116" d="M219.791,683.662h26.431a6.393,6.393,0,0,0,6.414-6.192c0-.079,0-.159,0-.239a9.885,9.885,0,0,0-12.293-9.588,8.434,8.434,0,0,0-16.559.491,8.435,8.435,0,0,0-9.505,12.4A6.384,6.384,0,0,0,219.791,683.662Z" transform="translate(982.501 -97.673)" fill="#073a93"/>
    <g id="Group_43" data-name="Group 43" transform="translate(1084.39 491.388)">
      <path id="Path_117" data-name="Path 117" d="M244.336,611.3l-94.665-.2a13.423,13.423,0,0,0-13.41,13.354l-.314,161.426A13.42,13.42,0,0,0,149.3,799.29l94.665.2a13.422,13.422,0,0,0,13.41-13.354l.314-161.426A13.422,13.422,0,0,0,244.336,611.3Z" transform="translate(-135.947 -611.1)" fill="#89caf7"/>
      <path id="Path_118" data-name="Path 118" d="M239.933,618.972l-10.385-.022a2.606,2.606,0,0,0-2.181,1.167l-2.452,3.7a13.674,13.674,0,0,1-11.427,6.117l-40.166-.084a13.677,13.677,0,0,1-11.4-6.164l-2.436-3.707a2.612,2.612,0,0,0-2.176-1.176l-10.385-.022a2.611,2.611,0,0,0-2.616,2.606l-.314,160.842a2.612,2.612,0,0,0,2.606,2.616l93.007.193a2.61,2.61,0,0,0,2.616-2.6l.313-160.842A2.609,2.609,0,0,0,239.933,618.972Z" transform="translate(-132.395 -607.712)" fill="#d2ebff"/>
    </g>
    <path id="Path_119" data-name="Path 119" d="M122.7,654.9h34.009a8.226,8.226,0,0,0,8.253-7.966c0-.1,0-.206,0-.308a12.717,12.717,0,0,0-15.817-12.336,10.852,10.852,0,0,0-21.307.631,10.853,10.853,0,0,0-12.231,15.957A8.214,8.214,0,0,0,122.7,654.9Z" transform="translate(938.812 -113.229)" fill="#67b8ef"/>
    <path id="Path_120" data-name="Path 120" d="M186.791,612.912h26.431a6.393,6.393,0,0,0,6.414-6.192c0-.079,0-.159,0-.239a9.886,9.886,0,0,0-12.293-9.588,8.434,8.434,0,0,0-16.559.492,8.435,8.435,0,0,0-9.505,12.4A6.384,6.384,0,0,0,186.791,612.912Z" transform="translate(967.938 -128.896)" fill="#489bff"/>
    <g id="Group_47" data-name="Group 47" transform="translate(1160.799 503.523)">
      <rect id="Rectangle_27" data-name="Rectangle 27" width="92.548" height="56.183" rx="2.998" transform="translate(0.117 0) rotate(0.119)" fill="#ffcb31"/>
      <g id="Group_44" data-name="Group 44" transform="translate(43.931 18.544)">
        <path id="Path_121" data-name="Path 121" d="M259.124,632.386H221.058A1.622,1.622,0,0,0,219.441,634h0a1.622,1.622,0,0,0,1.617,1.617h38.066A1.622,1.622,0,0,0,260.743,634h0A1.622,1.622,0,0,0,259.124,632.386Z" transform="translate(-219.441 -632.386)" fill="#fff"/>
        <path id="Path_122" data-name="Path 122" d="M250.552,637.922H221.058a1.622,1.622,0,0,0-1.617,1.619h0a1.622,1.622,0,0,0,1.617,1.617h29.493a1.622,1.622,0,0,0,1.617-1.617h0A1.622,1.622,0,0,0,250.552,637.922Z" transform="translate(-219.441 -629.943)" fill="#fff"/>
        <rect id="Rectangle_28" data-name="Rectangle 28" width="28.685" height="3.235" rx="1.122" transform="translate(0 15.582)" fill="#fff"/>
      </g>
      <g id="Group_46" data-name="Group 46" transform="translate(10.444 13.58)">
        <g id="Group_45" data-name="Group 45" transform="translate(5.494)">
          <path id="Path_123" data-name="Path 123" d="M212.223,635.253a6.105,6.105,0,1,1-6.1-6.311A6.209,6.209,0,0,1,212.223,635.253Z" transform="translate(-200.019 -628.942)" fill="#fff"/>
        </g>
        <path id="Path_124" data-name="Path 124" d="M215.572,641.42l-3.68-1.2a13.205,13.205,0,0,0-8.155,0l-3.7,1.2a5.531,5.531,0,0,0-3.827,5.261v5.95H219.4v-5.95A5.53,5.53,0,0,0,215.572,641.42Z" transform="translate(-196.207 -624.249)" fill="#fff"/>
      </g>
    </g>
    <g id="Group_49" data-name="Group 49" transform="translate(1177.917 579.406)">
      <circle id="Ellipse_15" data-name="Ellipse 15" cx="4.092" cy="4.092" r="4.092" fill="#f4f4f9"/>
      <g id="Group_48" data-name="Group 48" transform="translate(1.578 2.67)">
        <path id="Path_125" data-name="Path 125" d="M202.861,676.865a.253.253,0,0,1-.1-.02.27.27,0,0,1-.153-.167l-.662-2.12a.267.267,0,1,1,.51-.159l.566,1.815,4.128-2.162a.268.268,0,0,1,.248.474l-4.412,2.309A.263.263,0,0,1,202.861,676.865Z" transform="translate(-201.932 -674.021)" fill="url(#linear-gradient-2)"/>
      </g>
    </g>
    <g id="Group_59" data-name="Group 59" transform="translate(1074.263 585.755)">
      <g id="Group_50" data-name="Group 50">
        <path id="Path_126" data-name="Path 126" d="M210.538,677.875V736.93a1.3,1.3,0,0,1-1.3,1.288H130.224a1.3,1.3,0,0,1-1.3-1.288V677.875a1.3,1.3,0,0,1,1.3-1.3h79.011A1.305,1.305,0,0,1,210.538,677.875Z" transform="translate(-128.921 -676.574)" fill="#489bff" stroke="#0f3163" stroke-miterlimit="10" stroke-width="1"/>
        <path id="Path_127" data-name="Path 127" d="M210.538,677.875v9.566H128.921v-9.566a1.3,1.3,0,0,1,1.3-1.3h79.011A1.305,1.305,0,0,1,210.538,677.875Z" transform="translate(-128.921 -676.574)" fill="#0f3163"/>
        <path id="Path_128" data-name="Path 128" d="M134.4,680.288a1.555,1.555,0,1,1-1.555-1.555A1.555,1.555,0,0,1,134.4,680.288Z" transform="translate(-127.876 -675.621)" fill="#fff"/>
        <path id="Path_129" data-name="Path 129" d="M139.08,680.288a1.555,1.555,0,1,1-1.555-1.555A1.555,1.555,0,0,1,139.08,680.288Z" transform="translate(-125.81 -675.621)" fill="#fff"/>
        <path id="Path_130" data-name="Path 130" d="M143.76,680.288a1.555,1.555,0,1,1-1.555-1.555A1.555,1.555,0,0,1,143.76,680.288Z" transform="translate(-123.745 -675.621)" fill="#fff"/>
      </g>
      <rect id="Rectangle_29" data-name="Rectangle 29" width="54.92" height="8.13" transform="translate(13.348 46.932)" fill="#fff"/>
      <circle id="Ellipse_16" data-name="Ellipse 16" cx="8.387" cy="8.387" r="8.387" transform="translate(32.422 12.507)" fill="#fff"/>
      <g id="Group_55" data-name="Group 55" transform="translate(36.647 15.69)">
        <g id="Group_54" data-name="Group 54">
          <g id="Group_52" data-name="Group 52" transform="translate(1.28)">
            <g id="Group_51" data-name="Group 51">
              <path id="Path_131" data-name="Path 131" d="M161,693.368h-5.762v-3.027a2.881,2.881,0,0,1,5.762,0Zm-4.8-.96h3.842v-2.067a1.921,1.921,0,0,0-3.842,0Z" transform="translate(-155.235 -687.46)" fill="#0f3163"/>
            </g>
          </g>
          <g id="Group_53" data-name="Group 53" transform="translate(0 3.684)">
            <path id="Path_132" data-name="Path 132" d="M162.219,690.016H154.8a.451.451,0,0,0-.45.451v5.821a.451.451,0,0,0,.45.451h7.423a.453.453,0,0,0,.451-.451v-5.821A.453.453,0,0,0,162.219,690.016Zm-4.052,3.3v-.5a.339.339,0,0,1,.679,0v.5a.686.686,0,1,1-.679,0Z" transform="translate(-154.347 -690.016)" fill="#7872fd"/>
          </g>
        </g>
      </g>
      <g id="Group_58" data-name="Group 58" transform="translate(13.938 33.235)">
        <rect id="Rectangle_30" data-name="Rectangle 30" width="7.192" height="8.535" fill="#fff"/>
        <rect id="Rectangle_31" data-name="Rectangle 31" width="7.192" height="8.535" transform="translate(9.31)" fill="#fff"/>
        <rect id="Rectangle_32" data-name="Rectangle 32" width="7.192" height="8.535" transform="translate(18.62)" fill="#fff"/>
        <rect id="Rectangle_33" data-name="Rectangle 33" width="7.192" height="8.535" transform="translate(27.929)" fill="#fff"/>
        <rect id="Rectangle_34" data-name="Rectangle 34" width="7.192" height="8.535" transform="translate(37.239)" fill="#fff"/>
        <rect id="Rectangle_35" data-name="Rectangle 35" width="7.192" height="8.535" transform="translate(46.549)" fill="#fff"/>
        <g id="Group_56" data-name="Group 56" transform="translate(1.778 2.388)">
          <path id="Path_133" data-name="Path 133" d="M141.869,702.813l1.222-.882.36.651-1.392.581,1.4.571-.381.672-1.212-.882.16,1.512h-.751l.15-1.512-1.212.892-.391-.682,1.392-.581-1.392-.561.37-.672,1.242.892-.16-1.523h.761Z" transform="translate(-139.825 -701.29)" fill="#0f3163"/>
        </g>
        <g id="Group_57" data-name="Group 57" transform="translate(11.087 2.388)">
          <path id="Path_134" data-name="Path 134" d="M148.328,702.813l1.222-.882.36.651-1.392.581,1.4.571-.381.672-1.212-.882.16,1.512h-.751l.15-1.512-1.212.892-.391-.682,1.392-.581-1.392-.561.37-.672,1.242.892-.16-1.523h.761Z" transform="translate(-146.284 -701.29)" fill="#0f3163"/>
        </g>
        <line id="Line_1" data-name="Line 1" x2="1.742" transform="translate(21.344 4.268)" fill="none" stroke="#b4aff3" stroke-linecap="round" stroke-linejoin="round" stroke-width="1"/>
        <line id="Line_2" data-name="Line 2" x2="1.742" transform="translate(30.654 4.268)" fill="none" stroke="#b4aff3" stroke-linecap="round" stroke-linejoin="round" stroke-width="1"/>
        <line id="Line_3" data-name="Line 3" x2="1.742" transform="translate(39.964 4.268)" fill="none" stroke="#b4aff3" stroke-linecap="round" stroke-linejoin="round" stroke-width="1"/>
        <line id="Line_4" data-name="Line 4" x2="1.742" transform="translate(49.274 4.268)" fill="none" stroke="#b4aff3" stroke-linecap="round" stroke-linejoin="round" stroke-width="1"/>
      </g>
    </g>
    <g id="Group_63" data-name="Group 63" transform="translate(1141.221 570.994)">
      <g id="Group_61" data-name="Group 61">
        <path id="Path_135" data-name="Path 135" d="M189.658,698.716l-.117-.078c-13.427-5.625-13.728-25.625-13.736-26.474l0-.435,13.852-4.883.2-.066,14.04,4.949,0,.435c-.007.852-.314,20.915-13.808,26.506l-.112.046Z" transform="translate(-175.189 -666.134)" fill="#489bff"/>
        <g id="Group_60" data-name="Group 60">
          <path id="Path_136" data-name="Path 136" d="M190.036,667.623l13.43,4.735s-.156,20.446-13.43,25.946h-.006a.1.1,0,0,0-.036-.019c-13.238-5.519-13.39-25.928-13.39-25.928l13.39-4.722.042-.013m.01-1.292-.4.133-.042.014L176.2,671.206l-.822.29.007.871a45.442,45.442,0,0,0,1.779,11.228c2.31,7.907,6.555,13.362,12.278,15.784l.223.147h.61l.229-.094c5.781-2.394,10.069-7.865,12.4-15.82a45.372,45.372,0,0,0,1.786-11.245l.007-.871-.822-.29-13.432-4.736-.395-.138Z" transform="translate(-175.377 -666.332)" fill="#d3d3ef"/>
        </g>
      </g>
      <g id="Group_62" data-name="Group 62" transform="translate(8.839 10.861)">
        <path id="Path_137" data-name="Path 137" d="M186.785,682.992l-4.938-4.1a.936.936,0,1,1,1.2-1.44l3.644,3.027,6.525-6.345a.937.937,0,1,1,1.306,1.343Z" transform="translate(-181.509 -673.867)" fill="#fefefe"/>
      </g>
      <path id="Path_138" data-name="Path 138" d="M189.619,667.237v30.649c-13.238-5.519-13.39-25.928-13.39-25.928Z" transform="translate(-175.001 -665.933)" fill="#d1d3d4" style="mix-blend-mode: multiply;isolation: isolate"/>
    </g>
    <g id="Group_70" data-name="Group 70" transform="translate(1099.468 577.584)">
      <g id="Group_64" data-name="Group 64" transform="translate(11.535)">
        <path id="Path_139" data-name="Path 139" d="M154.9,648.712l1.121-.809.33.6-1.277.532,1.286.525-.349.615-1.111-.809.147,1.386h-.689l.138-1.386-1.113.817-.357-.624,1.277-.533-1.277-.515.34-.615,1.139.819-.147-1.4h.7Z" transform="translate(-153.024 -647.315)" fill="#fff"/>
      </g>
      <g id="Group_65" data-name="Group 65" transform="translate(17.303)">
        <path id="Path_140" data-name="Path 140" d="M158.9,648.712l1.12-.809.331.6-1.277.532,1.286.525-.349.615-1.111-.809.147,1.386h-.689l.137-1.386-1.111.817-.357-.624,1.277-.533-1.277-.515.339-.615,1.14.819-.147-1.4h.7Z" transform="translate(-157.026 -647.315)" fill="#fff"/>
      </g>
      <g id="Group_66" data-name="Group 66" transform="translate(23.07)">
        <path id="Path_141" data-name="Path 141" d="M162.9,648.712l1.121-.809.33.6-1.276.532,1.286.525-.35.615-1.111-.809.147,1.386h-.689l.138-1.386-1.111.817-.359-.624,1.277-.533-1.277-.515.34-.615,1.139.819-.147-1.4h.7Z" transform="translate(-161.027 -647.315)" fill="#fff"/>
      </g>
      <g id="Group_67" data-name="Group 67" transform="translate(28.838)">
        <path id="Path_142" data-name="Path 142" d="M166.9,648.712l1.121-.809.33.6-1.277.532,1.286.525-.349.615-1.111-.809.147,1.386h-.689l.138-1.386-1.113.817-.357-.624,1.277-.533-1.277-.515.34-.615,1.139.819-.147-1.4h.7Z" transform="translate(-165.029 -647.315)" fill="#fff"/>
      </g>
      <g id="Group_68" data-name="Group 68">
        <path id="Path_143" data-name="Path 143" d="M146.895,648.712l1.12-.809.331.6-1.277.532,1.286.525-.349.615-1.111-.809.147,1.386h-.689l.137-1.386-1.111.817-.357-.624,1.277-.533-1.277-.515.339-.615,1.14.819-.147-1.4h.7Z" transform="translate(-145.021 -647.315)" fill="#fff"/>
      </g>
      <g id="Group_69" data-name="Group 69" transform="translate(5.767)">
        <path id="Path_144" data-name="Path 144" d="M150.9,648.712l1.121-.809.33.6-1.276.532,1.286.525-.35.615-1.111-.809.147,1.386h-.689l.138-1.386-1.111.817-.359-.624,1.277-.533-1.277-.515.34-.615,1.139.819-.147-1.4h.7Z" transform="translate(-149.022 -647.315)" fill="#fff"/>
      </g>
    </g>
  </g>
</svg>
