<svg xmlns="http://www.w3.org/2000/svg" width="296" height="79.484" viewBox="0 0 296 79.484"><g transform="translate(-363 -212)"><g transform="translate(363 212)"><path d="M277.365,343.355a39.036,39.036,0,0,0-16.518-21.583c-.6-5.592-3.517-7.118-3.517-7.118l-.521,4.881a39.212,39.212,0,1,0,20.556,23.821Z" transform="translate(-200.655 -314.653)" fill="#3b2e7e"/><path d="M211.094,372.714s-3.9-5.008-4.234-13.728,6.817-15.769,12.2-19.661,34.89-24.672,34.89-24.672,4.153,10.65-6.214,18.941c0,0-22.209,15.417-25.455,17.782S210.405,361.621,211.094,372.714Z" transform="translate(-197.278 -314.653)" fill="#ffcb31"/><g transform="translate(16.161 23.182)"><path d="M226.418,359.626c3.246-2.369,16.807-11.514,16.807-11.514,10.724-7.77,6.686-18.454,6.686-18.454s-21.409,14.9-26.877,18.68c-7.633,5.273-12.229,11.719-11.9,20.44.27,7.216,2.372,10.718,3.09,11.713a39.35,39.35,0,0,0,6.139,2.94C215.381,370.041,223.186,361.985,226.418,359.626Z" transform="translate(-211.114 -329.657)" fill="#ffcb31"/><path d="M219.056,356.723c-3.2,5.071-.484,12.554-.137,12.664a39.015,39.015,0,0,0,23.329.066,39.447,39.447,0,0,0,4.688-1.771C222.8,375.235,219.056,356.723,219.056,356.723Z" transform="translate(-207.626 -314.904)" fill="#ffcb31"/></g></g><path d="M463.428,324.162H251.1c9.632,16.291,8.994,38.776-1.936,54.236H463.428a6.787,6.787,0,0,0,6.786-6.788V330.95A6.787,6.787,0,0,0,463.428,324.162Z" transform="translate(188.786 -97.47)" fill="#3b2e7e"/><path d="M271.117,360.451a1.792,1.792,0,0,1-1.145-.394,2.142,2.142,0,0,1-.715-1.072l-7.189-23.893a2.319,2.319,0,0,1,.054-1.877,1.435,1.435,0,0,1,1.341-.7,1.937,1.937,0,0,1,1.108.34,1.862,1.862,0,0,1,.715,1.055l6.261,21.82h-.788l5.8-21.6a1.586,1.586,0,0,1,.643-.895,1.923,1.923,0,0,1,1.145-.357,2.137,2.137,0,0,1,1.091.3,1.377,1.377,0,0,1,.661.913l5.831,21.64h-.715l6.295-22a1.678,1.678,0,0,1,1.825-1.216,1.218,1.218,0,0,1,1.287.769,2.9,2.9,0,0,1,0,1.806l-7.189,23.858a2.551,2.551,0,0,1-.732,1.091,1.77,1.77,0,0,1-2.29-.019,2.448,2.448,0,0,1-.7-1.037l-5.759-22.248h.857l-5.83,22.212a2.554,2.554,0,0,1-.734,1.091A1.678,1.678,0,0,1,271.117,360.451Z" transform="translate(195.73 -92.916)" fill="#fff"/><path d="M291.721,357.692a10.113,10.113,0,0,1-5.116-1.27,9.186,9.186,0,0,1-3.486-3.506,11.067,11.067,0,0,1,0-10.3,9.193,9.193,0,0,1,3.486-3.5,10.864,10.864,0,0,1,10.194,0,9.209,9.209,0,0,1,3.487,3.5,11.151,11.151,0,0,1,.018,10.3,9.072,9.072,0,0,1-3.47,3.506A10.107,10.107,0,0,1,291.721,357.692Zm0-3.218a6.283,6.283,0,0,0,3.291-.859,6.034,6.034,0,0,0,2.236-2.361,7.237,7.237,0,0,0,.8-3.47,7.348,7.348,0,0,0-.8-3.487,5.988,5.988,0,0,0-2.236-2.378,6.733,6.733,0,0,0-6.582,0,6.072,6.072,0,0,0-2.253,2.378,7.214,7.214,0,0,0-.823,3.487,7.1,7.1,0,0,0,.823,3.47,6.121,6.121,0,0,0,2.253,2.361A6.275,6.275,0,0,0,291.721,354.474Z" transform="translate(206.602 -90.014)" fill="#fff"/><path d="M298.522,357.574a1.836,1.836,0,0,1-1.324-.447,1.782,1.782,0,0,1-.465-1.341V339.8a1.621,1.621,0,0,1,1.789-1.789,1.581,1.581,0,0,1,1.788,1.789v15.989a1.83,1.83,0,0,1-.447,1.323A1.779,1.779,0,0,1,298.522,357.574Zm-.035-12.232a7.13,7.13,0,0,1,1.055-3.846,7.719,7.719,0,0,1,2.845-2.7,7.925,7.925,0,0,1,3.935-1,5.867,5.867,0,0,1,3.2.7,1.475,1.475,0,0,1,.8,1.663,1.377,1.377,0,0,1-.409.769,1.44,1.44,0,0,1-.7.34,2.134,2.134,0,0,1-.861-.036,10.038,10.038,0,0,0-4.113-.073,5.592,5.592,0,0,0-2.879,1.466,3.719,3.719,0,0,0-1.057,2.719Z" transform="translate(214.716 -90.039)" fill="#fff"/><path d="M308.349,360.451A1.658,1.658,0,0,1,306.6,358.7V334.268a1.754,1.754,0,1,1,3.506,0V358.7a1.656,1.656,0,0,1-1.752,1.752Zm1.679-7.154-2.217-2.432,10.981-9.8a1.588,1.588,0,0,1,1.2-.465,1.786,1.786,0,0,1,1.591,1.752,1.667,1.667,0,0,1-.572,1.145Zm11.089,6.976a1.746,1.746,0,0,1-1.27.411,1.605,1.605,0,0,1-1.162-.627l-7.26-8.977,2.5-2.361,7.44,9.156a1.69,1.69,0,0,1,.411,1.235A1.655,1.655,0,0,1,321.117,360.273Z" transform="translate(220.092 -92.916)" fill="#fff"/><path d="M325.947,357.692a13.523,13.523,0,0,1-4.632-.769,8.874,8.874,0,0,1-3.308-1.95,1.549,1.549,0,0,1-.447-1.3,1.714,1.714,0,0,1,.7-1.2,1.861,1.861,0,0,1,1.414-.482,1.93,1.93,0,0,1,1.2.624,5.636,5.636,0,0,0,1.95,1.27,7.325,7.325,0,0,0,2.987.592,6.043,6.043,0,0,0,3.166-.68,2.11,2.11,0,0,0,1.126-1.754,2.189,2.189,0,0,0-1.02-1.86,9.782,9.782,0,0,0-3.844-1.287,11.273,11.273,0,0,1-5.241-2.146,4.492,4.492,0,0,1-1.629-3.506,4.364,4.364,0,0,1,1.074-3.022,6.511,6.511,0,0,1,2.755-1.788,10.476,10.476,0,0,1,3.5-.59,10.913,10.913,0,0,1,4.184.751,7.164,7.164,0,0,1,2.9,2.073,1.658,1.658,0,0,1,.465,1.2,1.386,1.386,0,0,1-.607,1.055,1.752,1.752,0,0,1-1.36.25,2.557,2.557,0,0,1-1.324-.643,4.854,4.854,0,0,0-1.931-1.182,8.1,8.1,0,0,0-2.4-.321,6.011,6.011,0,0,0-2.664.536,1.7,1.7,0,0,0-1.091,1.574,2.058,2.058,0,0,0,.341,1.162,2.841,2.841,0,0,0,1.341.93,17.108,17.108,0,0,0,2.931.8,15.985,15.985,0,0,1,4.24,1.36,5.665,5.665,0,0,1,2.236,1.913,4.674,4.674,0,0,1,.678,2.522,5.26,5.26,0,0,1-.875,2.97,6.05,6.05,0,0,1-2.576,2.111A10.1,10.1,0,0,1,325.947,357.692Z" transform="translate(226.061 -90.014)" fill="#fff"/><path d="M331.382,365.918a1.773,1.773,0,0,1-1.823-1.823V347.784a10.309,10.309,0,0,1,1.324-5.079,9.565,9.565,0,0,1,3.506-3.558,9.873,9.873,0,0,1,13.574,3.558,9.948,9.948,0,0,1,1.306,5.079,10.539,10.539,0,0,1-1.2,5.062,9.271,9.271,0,0,1-3.272,3.541,9.048,9.048,0,0,1-8.566.43,9.174,9.174,0,0,1-3.024-2.379V364.1a1.8,1.8,0,0,1-.5,1.306A1.764,1.764,0,0,1,331.382,365.918Zm8.013-11.444a6.1,6.1,0,0,0,3.256-.878,6.359,6.359,0,0,0,2.271-2.4,6.944,6.944,0,0,0,.841-3.416,7.02,7.02,0,0,0-.841-3.45,6.374,6.374,0,0,0-2.271-2.4,6.453,6.453,0,0,0-6.492,0,6.2,6.2,0,0,0-2.271,2.4,7.13,7.13,0,0,0-.822,3.45,7.052,7.052,0,0,0,.822,3.416,6.186,6.186,0,0,0,2.271,2.4A6.119,6.119,0,0,0,339.4,354.474Z" transform="translate(232.609 -90.014)" fill="#fff"/><path d="M352.952,357.692a8.612,8.612,0,0,1-4.685-1.306,9.263,9.263,0,0,1-3.274-3.541,10.538,10.538,0,0,1-1.2-5.062A9.933,9.933,0,0,1,345.1,342.7a9.647,9.647,0,0,1,3.541-3.558A9.86,9.86,0,0,1,362.2,342.7a9.933,9.933,0,0,1,1.306,5.079H362.11a10.539,10.539,0,0,1-1.2,5.062,9.271,9.271,0,0,1-3.272,3.541A8.621,8.621,0,0,1,352.952,357.692Zm.715-3.218a6.1,6.1,0,0,0,3.255-.878,6.243,6.243,0,0,0,2.253-2.4,7.052,7.052,0,0,0,.822-3.416,7.13,7.13,0,0,0-.822-3.45,6.258,6.258,0,0,0-2.253-2.4,6.453,6.453,0,0,0-6.492,0,6.339,6.339,0,0,0-2.29,2.4,7,7,0,0,0-.839,3.45,6.926,6.926,0,0,0,.839,3.416,6.324,6.324,0,0,0,2.29,2.4A6.119,6.119,0,0,0,353.668,354.474Zm8.011,3.11a1.77,1.77,0,0,1-1.823-1.823v-5.473l.68-3.792,2.968,1.287v7.977a1.77,1.77,0,0,1-1.825,1.823Z" transform="translate(240.37 -90.014)" fill="#fff"/><path d="M367.9,357.692a9.928,9.928,0,0,1-5.1-1.306,9.413,9.413,0,0,1-3.5-3.541,10.06,10.06,0,0,1-1.27-5.062,10.426,10.426,0,0,1,1.251-5.15,9.1,9.1,0,0,1,3.435-3.523,9.765,9.765,0,0,1,5.008-1.27,9.152,9.152,0,0,1,3.863.8,9.321,9.321,0,0,1,3.147,2.415,1.288,1.288,0,0,1,.357,1.18,1.863,1.863,0,0,1-.785,1.074,1.365,1.365,0,0,1-1.109.232,2.176,2.176,0,0,1-1.109-.626,5.756,5.756,0,0,0-4.363-1.86,6.128,6.128,0,0,0-3.22.841,5.828,5.828,0,0,0-2.182,2.342,7.549,7.549,0,0,0-.786,3.541,7.18,7.18,0,0,0,.8,3.435,6.137,6.137,0,0,0,2.237,2.378,6.226,6.226,0,0,0,3.325.878,7.221,7.221,0,0,0,2.2-.3,5.251,5.251,0,0,0,1.735-.949,2.159,2.159,0,0,1,1.18-.518,1.4,1.4,0,0,1,1.072.338,1.714,1.714,0,0,1,.68,1.128,1.325,1.325,0,0,1-.43,1.126A9.083,9.083,0,0,1,367.9,357.692Z" transform="translate(248.13 -90.014)" fill="#fff"/><path d="M380.75,357.692a10.763,10.763,0,0,1-5.276-1.27,9.293,9.293,0,0,1-3.612-3.506,9.99,9.99,0,0,1-1.3-5.133,10.5,10.5,0,0,1,1.234-5.168,9.014,9.014,0,0,1,3.415-3.5,9.77,9.77,0,0,1,5.008-1.27,8.967,8.967,0,0,1,4.793,1.233,8.04,8.04,0,0,1,3.058,3.4,11.267,11.267,0,0,1,1.055,4.991,1.5,1.5,0,0,1-.464,1.126,1.639,1.639,0,0,1-1.182.447H373.06v-2.861h14.307l-1.468,1a7.674,7.674,0,0,0-.714-3.2,5.212,5.212,0,0,0-4.972-3.058,6.52,6.52,0,0,0-3.487.893,5.767,5.767,0,0,0-2.2,2.45,8.01,8.01,0,0,0-.751,3.523,6.838,6.838,0,0,0,.895,3.506,6.525,6.525,0,0,0,2.469,2.432,7.173,7.173,0,0,0,3.611.895,6.809,6.809,0,0,0,2.271-.411,7.111,7.111,0,0,0,1.879-.949,2.021,2.021,0,0,1,1.162-.411,1.57,1.57,0,0,1,1.091.375,1.693,1.693,0,0,1,.644,1.18,1.27,1.27,0,0,1-.573,1.109,9.911,9.911,0,0,1-3.022,1.573A10.8,10.8,0,0,1,380.75,357.692Z" transform="translate(254.956 -90.014)" fill="#fff"/></g></svg>